<svg width="52" height="52" viewBox="0 0 52 52" fill="none" xmlns="http://www.w3.org/2000/svg">
<path d="M24.6521 0H26.4656C26.8277 0.13826 27.6119 0.411777 27.8726 0.660422C31.2488 3.87982 34.4462 7.30135 37.749 10.5846L46.0622 18.8004C52.3781 25.087 53.5817 25.0017 46.6673 31.6952C40.939 37.3459 35.2799 43.0741 29.5716 48.7405C26.0622 52.156 25.1208 51.9839 21.6454 48.7604C18.846 46.1638 16.3037 43.3965 13.6308 40.735L5.2449 32.3782C-0.096465 27.0043 -2.7469 25.7864 4.1313 19.7286C4.36973 19.5186 4.67929 19.2092 4.90766 18.9784L13.3067 10.5951C16.5431 7.37272 19.7333 3.91042 23.1341 0.841904C23.4067 0.595925 24.2838 0.180053 24.6521 0ZM17.7444 20.2653C23.3237 21.4929 28.8822 23.0333 34.4724 24.1933C36.6488 24.645 41.4446 26.3786 43.4678 26.2516C42.9272 25.5228 22.1445 14.8089 19.5238 13.4237C18.0678 12.654 16.2789 11.5007 14.8259 10.8571C15.2573 13.1748 16.3466 16.0519 17.1115 18.2923C17.2883 18.8103 17.5531 19.8635 17.7444 20.2653ZM21.5015 32.429C23.8487 31.9444 26.0619 31.4253 28.3935 30.897C31.9487 30.0915 35.734 29.7966 39.266 28.8755L39.3688 28.8362C40.01 28.5965 42.3309 28.2129 42.5421 27.9345C41.7378 27.6501 39.3349 27.7382 38.3035 27.6845C32.1201 27.3626 25.8246 26.7397 19.6558 26.576C19.8847 28.4503 21.1021 30.7264 21.5015 32.429ZM22.6174 36.2706C23.4711 38.1788 23.722 40.3666 24.3747 42.0365C24.5677 42.7287 25.0183 44.788 25.496 45.191C25.9714 45.02 32.6741 38.422 33.6809 37.4998C34.6978 36.5685 40.6315 31.3933 40.9773 30.6901C40.8734 30.4705 40.9522 30.5414 40.7607 30.4448L40.6983 30.4668C39.5165 30.8944 37.527 32.1332 36.3296 32.7911L29.1379 36.6746C24.6594 39.1406 26.313 39.1005 22.6174 36.2706Z" fill="#FFB100"/>
</svg>
