<svg width="354" height="86" viewBox="0 0 354 86" fill="none" xmlns="http://www.w3.org/2000/svg">
<path d="M6.5163 6.50607C7.22445 6.51424 27.2199 19.1615 29.4519 20.3577C30.0626 20.685 33.0831 22.7142 33.6311 22.9778C34.0682 23.188 36.6233 22.0408 37.5137 21.9228C39.1496 21.7061 40.5379 21.6364 42.1641 21.8832C48.2116 22.8006 52.8711 28.0313 55.1821 33.4108C55.3931 33.9023 55.6495 34.4072 55.8536 34.8957C56.1291 35.5553 56.1636 36.4668 56.7304 36.9917C57.3017 37.5206 58.2271 37.9525 58.8376 38.3578C60.3793 39.3813 64.973 41.8424 65.8792 43.0539C65.252 42.8888 64.5527 42.5613 63.9119 42.3883C61.7162 41.7958 59.5327 41.0184 57.3522 40.4254C57.4925 41.0898 57.7783 44.1503 57.782 44.8087C58.2939 44.8452 62.4095 45.4144 62.7885 45.5801L62.8104 45.6957C62.5214 45.9185 58.4699 46.3097 57.8063 46.3579C57.7171 47.8722 57.8755 48.9952 57.4979 50.5927C58.4891 50.2108 59.7077 49.453 60.5137 49.2418L60.5881 49.2855C60.5541 49.8045 57.9831 51.5469 57.502 52.2264C57.1371 52.7417 56.4175 56.2574 56.0844 57.2704C55.6519 58.5853 54.9808 60.0617 54.2954 61.2617C53.5732 62.5262 52.8396 63.754 51.9386 64.9007C49.9502 67.4314 46.7648 70.0043 43.6227 70.8632C43.494 70.9094 43.6583 70.8541 43.5227 70.8883C40.3771 71.683 38.0287 71.5657 34.9111 70.6101C33.4651 71.4936 31.7518 73.3602 30.3777 74.3231C29.1792 75.164 24.9782 79.0654 24.0572 79.3314C23.4817 78.9607 23.0568 76.042 22.8518 75.2287L20.5367 65.9731C20.3495 65.2044 19.2773 60.737 19.4888 60.3701C19.6581 60.3143 19.8332 60.2808 19.9772 60.4143C21.6208 61.9377 22.8237 64.2483 24.6116 65.5508C24.8268 65.7075 26.9927 64.8043 27.3391 64.6674C24.5365 61.5159 22.5057 55.4865 22.1674 51.326C20.6823 51.5284 18.7554 51.9059 17.2663 51.9167C17.1421 51.0037 16.4324 49.2161 16.3434 48.441C16.2028 47.2164 14.1344 40.4235 14.609 39.7528C15.1512 39.5525 21.1547 40.4452 22.3868 40.5098C23.1358 36.929 24.0673 33.9726 25.9442 30.8379C26.1075 30.565 25.2713 30.4208 25.0297 30.343C20.7269 28.9571 16.3775 27.6908 12.0716 26.3214C11.7665 26.2243 11.0024 25.809 10.9073 25.5527C10.437 24.2849 10.1737 22.5289 9.86897 21.2354L8.15807 14.1387C7.86772 12.9478 6.35937 7.48169 6.5163 6.50607ZM42.4989 65.8761C44.5609 65.8368 45.8965 65.5535 47.6451 64.3524C55.9337 58.6592 57.9164 46.7364 54.5236 37.7173C52.4427 32.1857 48.1102 27.1815 41.7419 27.3493L41.5005 27.3567C25.0542 29.3454 23.4556 59.9521 38.6168 65.4995C40.2679 66.1037 40.856 65.8485 42.4989 65.8761Z" fill="#4BA33E"/>
<path d="M40.4947 29.3917C40.6199 29.3815 41.1487 29.4903 41.3054 29.5192C41.8239 30.2116 42.0718 30.5153 42.1119 31.4294C42.2258 34.021 42.3039 36.6354 42.1167 39.2254C42.0648 39.9452 41.7765 40.8176 41.176 41.2847C39.9883 42.1115 39.187 40.7305 38.601 39.9266C38.1891 39.2947 37.7827 38.6713 37.3519 38.0511C36.5618 36.9135 35.1546 35.5507 35.0185 34.1398C34.9457 33.3854 35.1775 32.6331 35.6622 32.0503C36.6049 30.9104 38.9882 29.5317 40.4947 29.3917Z" fill="#FFB100"/>
<path d="M44.6284 52.038C44.9471 52.0505 45.5108 52.1415 45.7228 52.4032C47.0576 54.0642 48.2041 55.9638 49.457 57.6877C51.4612 60.4452 49.6975 61.6793 47.5351 63.1599C47.0363 63.4522 46.0037 63.9515 45.4608 64.1212C44.6835 64.3643 44.3237 64.1901 43.6836 63.8325C42.6205 61.7267 43.3611 58.9164 43.0767 56.6351C42.9551 55.6604 43.1842 54.4212 43.344 53.4508C43.4485 52.8159 44.0664 52.2939 44.6284 52.038Z" fill="#FFB100"/>
<path d="M40.1611 52.0512C40.3907 52.0475 40.6492 52.0298 40.8658 52.1185C41.3597 52.3204 41.701 52.8113 41.8907 53.2898C42.2758 54.2611 42.2601 62.3732 41.8827 63.2135C41.6782 63.6668 41.2999 64.0187 40.8332 64.1902C40.1252 64.4465 38.6556 63.6361 37.9373 63.3079C37.147 62.9012 35.3254 61.4712 35.0758 60.557C34.4931 58.4231 37.2842 55.8932 38.2375 54.1463C38.6021 53.4782 39.5138 52.282 40.1611 52.0512Z" fill="#FFB100"/>
<path d="M51.5934 35.9919C53.7322 36.0163 54.6813 41.9026 54.8396 43.6573C55.1174 46.7375 51.621 46.0159 49.4755 46.01C48.8178 46.0122 47.6687 46.0811 47.1231 45.7713C46.0984 45.1897 46.065 43.1458 46.6539 42.2725C48.0184 40.249 49.2554 38.1347 50.8283 36.2684C50.9272 36.1511 51.4257 36.0341 51.5934 35.9919Z" fill="#FFB100"/>
<path d="M33.4136 35.9784C33.7344 35.99 34.152 36.0253 34.3989 36.2828C35.3922 37.3563 36.165 38.6491 37.0028 39.8506C37.8559 41.0743 38.9596 42.3212 38.9949 43.869C39.041 45.8905 37.6668 45.9918 36.0848 46.0086C34.8036 46.0134 32.4292 46.1724 31.239 45.7543C29.9908 45.3159 30.5415 42.5174 30.7562 41.5383C31.1034 39.9557 31.6501 38.2352 32.3088 36.7396C32.536 36.2112 32.9178 36.1461 33.4136 35.9784Z" fill="#FFB100"/>
<path d="M43.1672 32.2712C43.2197 31.2681 43.3534 29.1314 44.9148 29.4162C46.942 29.786 50.4724 31.6785 50.3128 34.1399C50.2189 35.2173 48.5171 37.2539 47.8613 38.1789C47.1735 39.1491 46.5153 40.3502 45.6328 41.1517C44.9798 41.7446 44.3166 41.4135 43.6673 41.0305C43.3021 40.3471 43.0661 39.2313 43.1128 38.4807C43.2245 38.003 43.1632 35.0763 43.1565 34.4058L43.1672 32.2712Z" fill="#FFB100"/>
<path d="M47.729 47.7139C48.8038 47.6594 53.3379 47.4961 54.0651 47.9432C54.4782 48.1972 54.7049 48.6396 54.803 49.1022C55.2109 51.028 53.7483 55.5195 52.6455 57.2363C52.2864 57.6295 51.4373 57.9205 51.0797 57.5029C49.4574 55.6089 47.9594 53.3248 46.5763 51.2481C45.8912 50.2194 46.1145 47.9781 47.729 47.7139Z" fill="#FFB100"/>
<path d="M32.3088 47.7077C33.4223 47.6451 36.9101 47.6431 37.9138 47.7799C39.972 49.235 38.7102 51.4579 37.5499 52.9596C36.8596 53.8528 36.1194 54.9861 35.5115 55.9439C35.1536 56.3262 34.6374 57.056 34.258 57.513C34.0271 57.6008 33.8003 57.6823 33.55 57.682C33.1906 57.6816 32.9296 57.5069 32.6889 57.2538C31.5544 56.0603 30.4266 51.5065 30.4546 49.8705C30.4683 49.0717 30.65 48.3391 31.2354 47.7701C31.5803 47.7385 31.9602 47.7262 32.3088 47.7077Z" fill="#FFB100"/>
<path d="M42.2935 43.0473C42.8269 43.0117 43.2637 43 43.7482 43.2772C46.1529 44.6527 46.0228 49.8223 43.1546 50.5886C39.188 51.4099 38.6704 43.6591 42.2935 43.0473Z" fill="#FFB100"/>
<path d="M42.9678 34.2177L43.0587 34.7484L43.1566 34.4054C43.1634 35.076 43.2247 38.0026 43.113 38.4803C42.735 37.9087 42.8703 36.5921 42.8882 35.8575C42.9554 35.5059 42.9576 34.6156 42.9678 34.2177Z" fill="#000E00" fill-opacity="0.494118"/>
<path d="M42.8878 35.8577C42.8766 34.9956 42.8132 33.1207 42.9119 32.3369L43.0037 32.32L43.0631 32.3593L43.1669 32.2711L43.1562 34.4056L43.0583 34.7486L42.9673 34.2179C42.9572 34.6157 42.955 35.5061 42.8878 35.8577Z" fill="#000E00" fill-opacity="0.360784"/>
<g clip-path="url(#clip0_75_1213)">
<path d="M127.004 13.067C130.152 12.8509 135.046 12.6369 137.877 14.1939C144.728 17.9625 143.81 24.3039 143.793 30.8954L143.797 42.565C143.853 48.4803 145.251 54.4992 139.665 58.5037C138.012 59.6884 136.707 60.1738 134.774 60.788C131.19 61.174 126.374 61.1889 123.187 59.3093C120.686 57.8125 118.873 55.3924 118.142 52.5716C117.149 48.7034 117.845 41.7402 117.631 37.461C117.429 34.3475 117.611 31.1679 117.51 28.0708C117.334 22.6824 117.847 17.1078 123.212 14.2947C124.426 13.658 125.681 13.4028 127.004 13.067ZM133.51 56.2053C136.701 55.0895 139.192 53.0167 139.221 49.3958C139.284 40.8083 139.311 32.1976 139.204 23.6121C139.174 21.2113 137.392 19.2708 135.346 18.266C133.414 17.3175 130.557 17.5934 128.423 17.6422C126.938 17.8198 124.743 18.806 123.873 20.0017C121.947 22.6486 122.213 25.8624 122.21 28.8896L122.212 37.7053L122.214 46.0819C122.218 49.257 121.825 52.5376 124.752 54.7634C127.227 56.6454 130.554 56.2647 133.51 56.2053Z" fill="#FBB519"/>
<path d="M99.7375 12.6904C99.8249 12.6802 99.9697 12.6657 100.057 12.6691C103.963 12.8235 108.333 12.9683 111.226 15.9643C113.348 18.1624 114.129 20.9561 114.115 23.8912C112.899 23.9869 110.937 23.9176 109.562 23.9732C109.195 22.2822 109.031 20.5631 107.686 19.3034C105.668 17.4144 102.778 17.4545 100.225 17.4416C98.4918 17.4329 95.3867 17.8737 94.1931 19.134C92.4964 21.1603 92.3403 24.4573 92.4876 26.8989C92.7922 31.9476 96.675 32.5886 100.776 32.7507C104.16 32.8845 108.362 33.6107 110.932 35.9316C114.365 39.031 114.152 43.3456 114.082 47.5375C114.136 51.5566 114.109 54.1207 111.15 57.2228C108.716 59.7728 105.397 60.8393 101.985 60.966C94.0333 61.1621 88.0118 58.7162 87.7654 49.6586C89.3172 49.5654 90.8732 49.5618 92.4255 49.6475C92.558 50.9847 92.9698 54.0714 94.3277 54.7652C98.4799 56.8871 104.522 57.33 107.815 53.3991C108.454 52.6485 108.913 51.7623 109.158 50.8076C109.39 49.871 109.436 44.6528 109.356 43.5479C108.661 33.9818 96.787 39.8509 91.3635 34.732C89.1275 32.7872 88.0099 29.8934 87.8212 26.8831C87.2146 17.2101 90.6088 13.3794 99.7375 12.6904Z" fill="#FBB519"/>
<path d="M250.447 13.0759C254.546 12.5636 259.412 13.8291 262.381 16.7768C265.585 19.9585 265.209 23.8359 265.212 27.984L265.21 35.5096L265.244 60.8746C263.885 60.9433 262.055 60.8856 260.66 60.8838L260.572 36.0947L260.574 28.2349C260.578 22.2848 260.917 19.4312 254.113 17.7038C250.794 17.4616 245.817 17.899 244.116 21.47C243.454 22.8592 243.611 26.9158 243.611 28.5976L243.608 37.1225C243.607 44.7726 243.429 53.261 243.704 60.8316C242.542 60.9508 240.358 60.8857 239.006 60.9651C238.823 50.3719 239.218 39.6496 239.028 29.0389C238.984 26.5063 238.846 23.6648 239.279 21.167C240.182 15.9466 245.765 13.644 250.447 13.0759Z" fill="#36AA37"/>
<path d="M217.598 13.0718C218.121 12.959 221.441 12.9979 222.196 12.9983L233.103 13.0138C233.289 14.4561 233.189 16.1635 233.083 17.6108C229.724 17.655 226.317 17.6077 222.839 17.5907C218.482 17.5695 213.154 17.0494 213.066 23.1901C213.048 24.5322 212.806 32.522 213.276 33.0495C214.686 33.4225 219.019 33.2977 220.682 33.2976L233.158 33.2898C233.256 34.584 233.202 36.5361 233.206 37.8782C226.498 37.8334 219.789 37.837 213.079 37.889C213.176 41.5254 213.041 45.8914 213.038 49.5875C213.024 50.9825 212.731 55.1215 213.547 56.0577C214.817 56.5217 230.581 56.2546 233.147 56.2434C233.241 57.588 233.179 59.3749 233.167 60.7528L220.854 60.7625C217.731 60.7638 212.991 61.1937 210.406 59.4292C207.963 57.762 208.461 52.5282 208.472 49.9478L208.482 40.3634L208.472 28.375C208.467 20.6393 207.85 14.2959 217.598 13.0718Z" fill="#36AA37"/>
<path d="M306.241 13.0737C306.784 12.9605 310.283 12.9987 311.027 12.9995L321.782 13.0124C321.873 14.433 321.85 16.14 321.798 17.5585C317.275 17.8349 312.454 17.458 307.898 17.5835C305.14 17.4968 302.424 18.6978 301.986 21.7662C301.489 25.2503 301.619 29.6073 301.719 33.1716C302.986 33.3762 308.299 33.3373 309.972 33.2974C313.623 33.2103 318.26 33.4689 321.798 33.221C321.891 34.6018 321.844 36.4627 321.849 37.8784L309.892 37.8531C307.277 37.8516 304.228 37.7746 301.662 37.9499C301.78 41.6951 301.685 45.9353 301.687 49.7182C301.681 51.5567 301.642 53.4903 301.753 55.3187C301.904 55.5622 302.069 55.8698 302.273 56.0704C302.66 56.4515 320.012 56.24 321.802 56.2303C321.869 57.639 321.832 59.3297 321.837 60.7592C317.633 60.7147 313.4 60.7947 309.193 60.7623C306.948 60.7418 304.762 60.8435 302.524 60.6204C296.626 60.0323 297.164 55.4525 297.176 50.9392L297.192 43.1288L297.087 29.2371C297.088 25.2474 296.661 19.7459 299.199 16.3471C300.945 14.008 303.498 13.4478 306.241 13.0737Z" fill="#36AA37"/>
<path d="M189.735 12.9518C190.049 12.9377 190.363 12.927 190.677 12.9197C198.257 12.7543 203.8 16.6385 203.917 24.6077C202.438 24.6657 200.859 24.6413 199.372 24.643C199.228 21.366 197.692 19.0692 194.475 18.0263C191.718 17.1329 188.428 17.5218 185.84 18.7591C183.168 20.0363 182.478 22.3282 182.413 25.0863C182.316 27.6888 182.342 30.2794 182.341 32.8835C182.303 36.7543 182.331 40.6255 182.424 44.4953C182.48 46.6859 182.411 48.8595 182.497 51.065C182.516 53.7298 184.906 55.0218 187.133 55.7419C190.678 56.8884 193.419 56.9088 196.793 55.2047C196.894 55.127 196.991 55.0438 197.084 54.9555C198.505 53.5946 199.183 52.2747 199.2 50.3096L199.373 50.1429C199.911 49.9934 202.947 49.9749 203.518 50.081C203.769 50.3072 203.902 50.4817 203.893 50.8552C203.592 62.5901 187.564 63.505 180.511 57.5113C177.117 54.6276 177.806 48.5506 177.808 44.5331L177.819 32.9262C177.821 29.7971 177.771 26.6287 177.78 23.4982C177.783 22.3239 178.223 20.8098 178.653 19.7C180.38 15.2389 185.31 13.2342 189.735 12.9518Z" fill="#36AA37"/>
<path d="M148.947 12.83C150.281 12.8039 151.584 12.7708 152.919 12.8178C153.522 14.8717 153.301 21.2596 153.301 23.76L153.297 44.88C153.297 46.411 153.047 55.4083 153.623 56.1408C154.637 56.3749 157.644 56.2185 158.836 56.2604C163.442 56.4218 168.83 56.0146 173.382 56.2809C173.421 57.7299 173.399 59.3144 173.405 60.7733C172.451 60.9389 171.291 60.8968 170.315 60.8884C164.788 60.8411 159.247 60.9939 153.724 60.8213C152.925 60.7964 152.498 60.6174 151.794 60.3148C149.183 59.1933 148.767 56.453 148.725 53.919C148.679 40.7604 148.694 27.5692 148.718 14.4072C148.719 13.9304 148.736 13.2516 148.947 12.83Z" fill="#FBB519"/>
<path d="M270.047 12.9405C275.362 12.7782 280.803 13.0032 286.132 12.913C288.106 12.8796 290.67 12.8155 292.59 13.0051C292.639 14.5101 292.616 16.0644 292.613 17.5737C289.799 17.7232 286.379 17.4182 283.616 17.7355L283.614 52.596C283.6 55.3486 283.674 58.1128 283.646 60.8553C282.541 61.0114 280.265 60.989 279.106 60.963C278.974 59.4364 279.05 57.0287 279.051 55.4374L279.052 45.5413C279.05 36.3887 278.92 26.9165 279.073 17.7876C277.639 17.4793 271.815 17.6253 269.924 17.5825C269.919 16.6553 269.845 13.703 270.047 12.9405Z" fill="#36AA37"/>
<path d="M87.2034 67.224C88.885 67.1158 91.5905 67.1987 93.3712 67.1989L105.213 67.1996L142.07 67.1994L255.349 67.2024L325.262 67.2058L341.669 67.1977C344.269 67.196 350.978 66.9587 353.207 67.5976C353.464 67.9488 353.719 68.2431 354 68.572V71.1912C353.037 73.985 352.669 77.801 352.135 80.6988C352.096 80.9149 351.965 81.1388 351.828 81.3089H296.514C296.394 81.2703 296.113 81.0988 295.99 81.0284C295.836 80.7921 295.84 80.5787 295.875 80.309C296.414 76.4056 294 73.4041 290.024 73.2164C287.548 73.0994 285.024 73.174 282.538 73.1778L268.419 73.185L223.034 73.1825L85.9878 73.1943V72.0834C86.4151 70.6207 86.6826 68.5437 87.2034 67.224ZM301.106 69.732C300.394 72.6394 299.936 75.5797 299.266 78.434C300.46 78.4406 301.782 78.4739 302.965 78.4138C303.194 77.0047 303.486 76.2085 303.953 74.8583C304.312 75.9071 304.89 77.4554 305.384 78.4494C306.23 78.4724 307.583 78.6121 308.269 78.1645C309.179 77.5702 310.574 75.826 311.167 74.9402C311.068 76.1101 310.952 77.2786 310.817 78.4452C311.784 78.4439 312.903 78.4688 313.857 78.4279C314.306 78.386 314.386 78.458 314.671 78.1883C315.209 75.828 315.679 71.8816 316.463 69.8009C311.715 69.3579 311.702 70.8341 308.764 74.1049C308.333 74.5846 307.884 75.0901 307.462 75.5809C307.242 75.1707 306.915 74.6024 306.738 74.1872C305.097 70.307 305.829 69.5745 301.106 69.732ZM350.961 69.798C349.95 69.733 349.191 69.6912 348.178 69.7231C347.581 69.7842 347.533 69.6995 347.094 70.0096C346.706 71.108 346.415 73.634 346.143 74.9229C345.935 75.9088 345.406 77.5893 345.275 78.4367L348.118 78.4677C348.531 78.4404 348.797 78.491 349.107 78.2818C349.403 76.9939 349.604 75.7475 349.883 74.4693C350.225 72.8989 350.687 71.3935 350.961 69.798ZM331.121 78.4608C333.075 78.475 342.146 78.6845 343.299 78.2411C344.567 76.888 344.026 75.8038 344.262 74.2229C344.448 72.9854 345.653 71.4453 344.938 70.1189C343.76 69.2854 335.015 69.854 332.852 69.69C332.677 72.2588 331.597 75.8128 331.121 78.4608ZM327.921 78.4661C328.254 78.4491 328.805 78.4438 329.032 78.1527C329.998 76.9189 331.321 71.2172 330.706 69.9983C329.726 69.5235 321.538 69.6491 319.987 69.7207C319.657 69.7622 318.52 69.8925 318.359 70.1236C317.423 71.4578 316.317 76.7892 316.723 78.1672C317.213 78.6928 326.585 78.4996 327.921 78.4661Z" fill="#36AA37"/>
<path d="M321.973 71.6631C323.586 71.622 325.308 71.6564 326.928 71.6604C326.811 72.9602 326.609 75.247 326.047 76.4086C325.92 76.6723 325.77 76.652 325.504 76.7137C324.472 76.7078 321.386 76.8949 320.637 76.4767C320.368 75.6543 321.154 73.1477 321.353 72.1931C321.426 71.8391 321.683 71.7914 321.973 71.6631Z" fill="#36AA37"/>
<path d="M335.867 75.1829C337.083 75.148 339.073 75.0173 340.171 75.3171C340.506 75.6136 340.416 75.4707 340.513 75.9204C340.357 76.2958 340.322 76.4145 340.042 76.7028C338.869 76.7035 336.553 76.8922 335.544 76.5364C335.252 76.2337 335.316 76.3787 335.286 75.9617C335.442 75.5281 335.501 75.4645 335.867 75.1829Z" fill="#36AA37"/>
<path d="M336.484 71.6921C337.753 71.6736 339.161 71.6004 340.433 71.6982C340.938 71.7371 341.095 71.8258 341.234 72.2921C341.077 72.7444 341.01 72.8214 340.684 73.1664C339.881 73.1858 336.465 73.3158 335.995 72.9526C335.984 72.5062 336.265 72.0954 336.484 71.6921Z" fill="#36AA37"/>
<path d="M327.599 61.0098L327.671 34.2064C327.67 30.3178 327.561 26.1845 327.644 22.292C327.675 20.7877 328.247 18.9662 329.081 17.701C330.716 15.2178 333.724 13.7814 336.586 13.2251C340.745 12.4885 346.346 12.9013 349.95 15.3327C352.407 16.9904 353.777 19.9219 353.883 22.8375C353.927 24.0332 353.774 25.7277 353.991 26.8622L354 26.9101V30.7718C352.804 34.0308 352.453 35.2144 349.591 37.5554C351.668 40.6206 352.897 40.6824 354 44.8619V60.8987C352.486 60.9525 350.97 60.9837 349.454 60.9925C349.325 56.4184 349.506 51.7511 349.421 47.1754C349.311 41.3101 344.038 39.7946 339.126 39.9018C336.874 39.951 334.589 39.8929 332.304 39.9829C332.288 42.0249 332.27 60.6159 332.096 60.846C331.322 61.0506 328.583 61.0019 327.599 61.0098ZM332.296 35.1676C335.646 35.2971 337.923 35.2298 341.208 35.2336C347.764 35.1163 349.883 31.5363 349.312 25.7297C349.174 24.326 349.121 22.8084 348.99 21.385C347.334 19.1216 346.192 18.3173 343.223 17.6762C342.901 17.6067 340.862 17.4986 340.619 17.536C337.456 17.7406 332.542 18.5244 332.353 22.3231C332.168 26.057 332.011 31.1227 332.27 34.8224C332.278 34.9375 332.287 35.0526 332.296 35.1676Z" fill="#36AA37"/>
</g>
<defs>
<clipPath id="clip0_75_1213">
<rect width="268.012" height="77.4392" fill="white" transform="translate(85.9878 3.8696)"/>
</clipPath>
</defs>
</svg>
