<svg width="263" height="54" viewBox="0 0 263 54" fill="none" xmlns="http://www.w3.org/2000/svg">
<path d="M24.6521 0H26.4656C26.8277 0.13826 27.6119 0.411777 27.8726 0.660422C31.2488 3.87982 34.4462 7.30135 37.749 10.5846L46.0622 18.8004C52.3781 25.087 53.5817 25.0017 46.6673 31.6952C40.939 37.3459 35.2799 43.0741 29.5716 48.7405C26.0622 52.156 25.1208 51.9839 21.6454 48.7604C18.846 46.1638 16.3037 43.3965 13.6308 40.735L5.2449 32.3782C-0.096465 27.0043 -2.7469 25.7864 4.1313 19.7286C4.36973 19.5186 4.67929 19.2092 4.90766 18.9784L13.3067 10.5951C16.5431 7.37272 19.7333 3.91042 23.1341 0.841904C23.4067 0.595925 24.2838 0.180053 24.6521 0ZM17.7444 20.2653C23.3237 21.4929 28.8822 23.0333 34.4724 24.1933C36.6488 24.645 41.4446 26.3786 43.4678 26.2516C42.9272 25.5228 22.1445 14.8089 19.5238 13.4237C18.0678 12.654 16.2789 11.5007 14.8259 10.8571C15.2573 13.1748 16.3466 16.0519 17.1115 18.2923C17.2883 18.8103 17.5531 19.8635 17.7444 20.2653ZM21.5015 32.429C23.8487 31.9444 26.0619 31.4253 28.3935 30.897C31.9487 30.0915 35.734 29.7966 39.266 28.8755L39.3688 28.8362C40.01 28.5965 42.3309 28.2129 42.5421 27.9345C41.7378 27.6501 39.3349 27.7382 38.3035 27.6845C32.1201 27.3626 25.8246 26.7397 19.6558 26.576C19.8847 28.4503 21.1021 30.7264 21.5015 32.429ZM22.6174 36.2706C23.4711 38.1788 23.722 40.3666 24.3747 42.0365C24.5677 42.7287 25.0183 44.788 25.496 45.191C25.9714 45.02 32.6741 38.422 33.6809 37.4998C34.6978 36.5685 40.6315 31.3933 40.9773 30.6901C40.8734 30.4705 40.9522 30.5414 40.7607 30.4448L40.6983 30.4668C39.5165 30.8944 37.527 32.1332 36.3296 32.7911L29.1379 36.6746C24.6594 39.1406 26.313 39.1005 22.6174 36.2706Z" fill="#FFB100"/>
<g clip-path="url(#clip0_73_258)">
<path d="M89.6567 5.88892C92.4325 5.67718 95.3998 6.33755 97.6688 7.99607C101.866 11.064 100.766 16.2789 100.787 20.7671L100.821 27.9712C100.839 29.5743 100.934 32.3743 100.688 33.8742C100.485 35.0938 99.9877 36.2457 99.2399 37.2303C97.8298 39.1186 95.6908 40.1455 93.3976 40.4806C90.6078 40.8808 86.9599 40.67 84.6112 38.9235C82.9591 37.7022 81.8708 35.8648 81.5936 33.829C81.3872 32.3894 81.4399 30.4883 81.4433 28.9942L81.4659 22.2683C81.4723 19.9551 81.4859 17.5085 81.4321 15.1982C81.3024 9.61137 84.2192 6.64481 89.6567 5.88892ZM91.6944 37.2738C94.4902 37.0896 96.9807 36.6911 97.1144 33.292C97.3361 27.6554 97.1644 22 97.2088 16.3561C97.2215 14.746 97.1681 11.9253 95.7604 10.8497C94.359 9.7789 92.5381 9.09468 90.7577 9.14797C89.1678 9.59124 86.727 10.1243 85.8323 11.674C85.4189 12.3899 85.2124 13.2231 85.1292 14.0411C84.9364 15.9367 84.817 32.8866 85.1375 34.0258C85.4159 35.0152 85.8318 35.8942 86.7613 36.407C88.133 37.1636 90.1608 37.2787 91.6944 37.2738Z" fill="#00A432"/>
<path d="M241.4 5.87725C243.455 5.66628 244.967 5.87288 247.022 6.25815C253.644 7.50021 253.818 14.4854 252.93 19.8585C252.628 21.6861 251.545 22.9228 249.932 23.8981C251.189 25.0029 252.136 25.9775 252.734 27.561C252.955 28.1463 253.226 29.7666 253.209 30.2949C253.155 31.8667 253.445 39.8279 253.058 40.7158C252.456 41.1747 250.665 41.2218 250.017 40.8669C249.576 40.2163 249.748 38.4097 249.754 37.5679C249.773 35.7666 249.781 33.9651 249.777 32.1635C249.761 29.8916 249.696 28.777 248.066 27.1699C247.316 26.5136 246.23 25.9376 245.217 25.857C242.854 25.669 240.269 25.6284 237.916 25.8585C237.111 25.9374 237.504 28.8089 237.413 29.4047C237.183 31.2205 237.883 39.7637 237.317 40.8265C236.718 41.2485 234.723 41.0616 233.95 41.0046C233.841 40.0525 233.885 38.1238 233.891 37.1264L233.932 30.4767L233.901 19.996C233.9 16.5755 233.576 11.9403 235.52 8.93725C236.772 7.00069 239.244 6.297 241.4 5.87725ZM244.389 21.9347C249.132 21.4031 249.805 19.7548 249.72 15.313C249.705 14.4876 249.728 13.7173 249.625 12.885C249.558 12.3696 249.437 11.863 249.261 11.3738C247.257 9.70464 245.21 9.2467 242.652 9.39431C241.213 9.64741 239.314 9.90204 238.09 11.439C237.246 12.4985 237.21 21.0793 237.721 21.751C238.175 22.3465 243.084 22.1252 244.389 21.9347Z" fill="#FFB100"/>
<path d="M178.504 5.89568C181.091 5.55505 184.851 6.86571 186.645 8.80118C188.758 11.0826 188.981 12.2396 188.951 15.2627C188.868 23.8217 189.075 32.4074 188.95 40.9594C187.784 41.103 186.605 41.062 185.431 41.0543C185.227 38.6496 185.318 35.5653 185.322 33.1012L185.328 20.7081C185.327 18.365 185.336 16.1457 185.198 13.8037C185.007 10.5435 182.5 10.0194 179.715 9.44306C178.206 9.30759 174.67 9.9859 173.975 11.3194C172.813 13.5506 173.185 17.987 173.19 20.4504L173.208 33.3905C173.219 34.6175 173.559 40.2009 173.057 40.8125C172.282 41.2451 170.588 41.0649 169.67 41.0135C169.515 38.9576 169.619 35.9791 169.633 33.8546L169.666 22.6599C169.681 19.3576 169.474 15.7265 169.776 12.4604C169.897 11.1471 170.707 9.70545 171.578 8.72295C173.401 6.66744 175.877 6.09954 178.504 5.89568Z" fill="#FFB100"/>
<path d="M221.302 5.80001C222.588 5.68577 224.164 5.82976 225.481 5.78534C226.373 5.75525 229.532 5.58083 230.06 6.09172C230.348 6.60185 230.263 7.16746 230.226 7.72891C230.202 8.10302 230.223 9.10172 229.9 9.35296C228.811 10.1995 218.806 8.31355 216.311 10.5771C216.039 10.8234 215.855 11.1008 215.745 11.4502C215.036 13.6808 215.5 18.2085 215.37 20.7578C215.739 20.7229 216.174 20.7236 216.547 20.7303C220.812 20.8068 225.081 20.7012 229.346 20.768C230.471 20.7858 230.266 23.2257 230.104 23.9545C229.74 24.2035 216.666 24.2109 215.397 24.0425C215.577 27.5947 215.4 31.7349 215.513 35.4156L215.668 36.8644C218.358 37.4923 223.203 37.2137 226.086 37.2746C227.235 37.2989 228.687 37.1623 229.806 37.3941C230.452 38.1749 230.215 39.806 230.154 40.8294C229.794 40.9308 229.425 40.9928 229.052 41.0142C227.346 41.0988 225.198 40.9791 223.432 40.9848C221.123 40.9923 218.596 41.021 216.317 40.7828C215.549 40.7026 213.879 40.2443 213.371 39.7087C212.324 38.6018 212.092 36.7451 212.074 35.2973C212.046 33.0889 212.074 30.9027 212.075 28.7075L212.019 20.9594C212.018 19.9143 211.993 18.8416 212.019 17.7904C212.101 14.5281 211.574 10.4929 213.967 7.88286C215.835 5.84607 218.752 5.87266 221.302 5.80001Z" fill="#FFB100"/>
<path d="M156.898 5.79955C157.315 5.76322 157.699 5.75261 158.118 5.76683C160.679 5.85349 163.17 5.64012 165.726 5.89398C165.717 6.7187 165.768 8.69542 165.454 9.35863C165.022 9.72881 162.945 9.49771 162.289 9.48403C160.355 9.45438 158.422 9.43906 156.488 9.43808C154.477 9.45558 152.818 9.60823 151.37 11.0824C150.69 13.4283 150.858 18.184 150.848 20.7749C151.985 20.6787 153.694 20.7491 154.897 20.7563L161.455 20.7596C162.79 20.7568 164.246 20.7946 165.556 20.5868C165.653 21.5692 165.668 23.1679 165.703 24.1926C164.397 24.0562 162.118 24.1004 160.742 24.0972C157.442 24.1179 154.142 24.1191 150.842 24.1008C150.869 27.8309 150.935 31.5606 151.043 35.2893C151.031 35.7564 150.99 36.3104 151.227 36.703C152.281 37.5824 160.25 37.2006 162.1 37.2694C162.956 37.3013 164.588 37.1103 165.438 37.2927C165.759 37.7132 165.793 40.3775 165.441 40.8123C164.859 41.1818 160.362 41.0441 159.278 40.9747C156.156 40.7747 151.608 41.6236 148.952 39.7489C147.798 38.9345 147.627 36.5148 147.615 35.1942C147.578 30.782 147.613 26.3164 147.587 21.8986C147.735 18.3983 147.293 14.6676 147.848 11.2044C148.658 6.15999 152.958 5.92068 156.898 5.79955Z" fill="#FFB100"/>
<path d="M134.619 5.66866C136.235 5.55978 139.009 6.12561 140.39 6.98797C143.494 8.92628 143.801 11.0808 144.651 14.0922C143.634 14.1343 142.603 14.1013 141.585 14.0814C140.777 12.9383 139.972 11.3068 138.948 10.4883C137.942 9.68348 135.879 8.88841 134.594 9.1379C133.24 9.40106 130.307 10.2332 129.425 11.4239C129.157 11.7854 128.919 13.4361 128.909 13.9296C128.826 17.7285 128.851 21.5224 128.86 25.3315C128.867 28.249 128.765 31.4575 128.998 34.354C129.039 34.8617 129.275 35.7797 129.743 36.0446C131.99 37.3152 134.724 37.6517 137.244 37.187C138.463 36.9622 139.369 36.629 140.045 35.6508C140.372 34.7615 140.779 33.0404 141.699 32.6701C142.196 32.4704 143.724 32.5525 144.232 32.7691C144.332 32.8876 144.448 33.0551 144.445 33.2203C144.317 43.6871 125.936 43.5779 125.121 33.7111C124.875 30.7352 125.028 27.237 125.023 24.2088L125.014 17.9683C125.011 14.5788 124.716 11.8752 127.022 9.10682C129.221 6.46744 131.347 5.99386 134.619 5.66866Z" fill="#FFB100"/>
<path d="M192.205 5.77132C197.702 5.66058 203.322 5.8582 208.911 5.72656C208.916 6.93393 208.963 8.3829 208.816 9.56281C207.802 9.58327 202.807 9.52024 202.21 9.39069C202.012 11.8512 202.21 15.2759 202.218 17.8301L202.215 34.4939C202.244 36.1776 202.234 37.8463 202.118 39.5278C202.08 40.091 202.01 40.7059 201.364 40.8933C200.687 41.0896 199.547 41.2304 198.947 40.7741C198.69 40.5786 198.582 39.8268 198.547 39.5044C198.399 36.7859 198.463 34.0388 198.464 31.3122L198.468 15.1461C198.467 14.1922 198.52 10.1712 198.295 9.55209C197.581 9.41389 192.891 9.54968 191.885 9.57506C191.762 8.77639 191.709 7.01031 191.814 6.16316C191.843 5.9326 192.031 5.86826 192.205 5.77132Z" fill="#FFB100"/>
<path d="M106.378 5.68822C106.849 5.65244 107.073 5.58996 107.436 5.81636C107.591 6.329 107.538 10.3035 107.538 11.1916L107.53 27.7389C107.526 29.4939 107.409 34.6292 107.661 36.0046C107.976 36.4251 108.646 37.1887 109.182 37.2276C113.49 37.5399 118.046 37.2617 122.361 37.3722C122.427 38.3868 122.327 39.851 122.271 40.8936C121.387 41.0585 120.671 41.0366 119.779 41.0099C116.513 40.8872 107.723 41.7274 105.504 39.7632C104.407 38.7925 104.194 36.8555 104.113 35.4717C103.853 31.0085 104.092 26.4335 104.08 21.9596L104.056 13.0852C104.055 11.0172 104.046 8.95854 104.168 6.89351C104.234 5.7913 104.482 5.68866 105.556 5.69205C105.817 5.69282 106.115 5.68789 106.378 5.68822Z" fill="#00A432"/>
<path d="M240.983 45.4916C241.344 45.4796 241.962 45.721 242.329 45.8417C242.891 45.6537 243.431 45.371 243.961 45.7505C244.465 46.9257 244.138 49.0426 244.211 50.3073C244.352 52.7784 241.133 54.3487 239.61 52.4228C239.586 52.262 239.59 52.0333 239.588 51.8637C240.205 50.9467 241.383 52.0431 242.375 51.2979C242.563 51.0036 242.592 50.7643 242.324 50.5312C241.979 50.5725 241.506 50.9336 241.191 51.1404C240.588 50.9642 240.005 50.6414 239.441 50.3571C238.157 48.5277 238.382 45.8853 240.983 45.4916ZM241.683 49.5325C242.391 49.0673 242.91 48.3936 242.371 47.5463C242.179 47.2455 241.873 47.0367 241.523 46.9693C241.421 46.9487 241.36 46.9455 241.254 46.9385C240.068 47.7588 240.265 49.7433 241.683 49.5325Z" fill="#00A432"/>
<path d="M206.685 45.4817C207.404 45.6248 207.779 45.8007 208.391 46.1927C208.328 46.1532 210.224 45.4664 210.524 45.4162L210.579 45.4072C210.944 45.5682 211.289 45.7739 211.636 45.9713C212.377 47.5307 212.437 48.3755 212.393 50.0634C212.03 50.5246 211.664 51.1682 211.033 50.8813C210.281 49.7911 211.042 47.7011 209.965 47.1209C209.583 47.0396 209.436 47.122 209.067 47.2474C208.514 47.7723 208.617 49.2529 208.586 50.076C208.42 50.5651 208.177 51.1059 207.609 51.0687C206.754 50.499 207.047 48.2454 206.478 46.8288C206.082 46.9687 205.618 47.1851 205.226 47.3555C204.862 48.5287 205.009 49.8619 204.62 50.5485C204.365 50.7483 204.329 50.7607 204.005 50.7776C202.883 50.1932 203.079 46.9106 203.456 45.8509C203.731 45.0714 204.785 46.0237 205.194 45.9532C205.645 45.8757 206.18 45.616 206.685 45.4817Z" fill="#00A432"/>
<path d="M250.043 45.4775C250.494 45.4855 251.144 45.6816 251.598 45.7983C252.157 45.576 252.38 45.4275 252.907 45.8124C253.503 46.6514 253.456 50.3173 252.76 50.8999C252.283 51.0346 252.011 50.8324 251.557 50.6152C251.094 50.6709 250.516 50.9166 250.066 51.0849C249.527 50.8305 248.866 50.4561 248.328 50.1692C247.383 48.7486 247.721 47.4734 248.395 46.0338C249.073 45.7423 249.326 45.6508 250.043 45.4775ZM250.957 49.4791C252.189 48.7772 251.825 47.0166 250.14 46.973C249.308 47.7009 249.169 49.82 250.957 49.4791Z" fill="#00A432"/>
<path d="M180.315 45.374L181.062 45.5698C181.457 45.806 181.857 46.0325 182.261 46.2491C183.963 49.0286 182.605 50.1067 180.11 51.1569C178.806 50.6498 177.569 49.9539 177.412 48.4008C177.34 47.6772 177.566 46.9554 178.038 46.4019C178.656 45.6884 179.411 45.4462 180.315 45.374ZM180.335 49.5789C181.784 48.9365 181.192 46.9622 180.272 47.0191C179.448 47.1869 178.853 47.584 178.995 48.5923C179.107 49.3798 179.656 49.46 180.335 49.5789Z" fill="#00A432"/>
<path d="M159.004 45.4799C159.852 45.3146 160.728 45.5546 161.374 46.1288C162.019 46.703 162.359 47.5454 162.294 48.4069C162.198 49.6784 161.245 50.7197 159.987 50.9289C158.803 51.1253 157.627 50.5369 157.075 49.4707C156.522 48.4046 156.72 47.1041 157.565 46.2505C157.956 45.8548 158.458 45.5862 159.004 45.4799ZM159.684 49.5658C161.032 48.5978 161.032 47.4304 159.344 46.9964C158.152 47.6017 158.174 49.4644 159.684 49.5658Z" fill="#00A432"/>
<path d="M185.795 45.4638C186.914 45.3682 187.776 45.7824 188.61 46.4895C189.579 50.0831 187.467 48.6236 185.46 48.9565L185.36 49.1033L185.517 49.3135C186.358 49.7869 187.248 49.4388 188.321 49.5348C188.332 49.5952 188.323 49.8232 188.322 49.8988C187.366 51.5939 184.895 51.1934 183.964 49.8216C182.647 47.8813 183.847 46.0933 185.795 45.4638ZM186.567 47.5745L186.913 47.6161L187.041 47.4966C186.844 47.1084 186.563 47.0741 186.169 46.9923C185.727 47.1554 185.698 47.0856 185.459 47.4042C185.802 47.6793 186.11 47.6063 186.567 47.5745Z" fill="#00A432"/>
<path d="M186.169 46.9922C186.563 47.074 186.844 47.1083 187.041 47.4965L186.913 47.616L186.567 47.5744C186.11 47.6063 185.802 47.6793 185.459 47.4042C185.698 47.0855 185.727 47.1553 186.169 46.9922Z" fill="#FEFEFE" fill-opacity="0.0117647"/>
<path d="M152.493 43.6549C153.535 43.5174 155.134 43.6717 155.675 44.7309C155.719 45.0891 155.699 45.1296 155.515 45.4424C154.829 45.6257 153.445 44.9719 152.869 45.4068C152.762 46.418 154.912 46.8103 155.542 47.6207C155.9 48.081 155.976 48.291 156.221 48.81C155.57 50.08 155.171 50.5922 153.738 51.0969C152.917 50.9941 150.819 50.2138 150.728 49.2863C150.966 48.9129 150.912 49.0169 151.35 48.7905C152.064 48.7225 153.231 49.8791 154.075 49.4231C155.095 48.1969 152.357 47.4064 151.485 46.8194C150.744 45.3114 151.019 44.4418 152.493 43.6549Z" fill="#00A432"/>
<path d="M218.217 45.4802C219.827 45.3596 221.468 46.3982 221.449 48.202C221.435 49.4758 218.404 48.6404 217.782 49.0405L217.817 49.2209C218.438 49.9596 219.858 49.2891 220.685 49.4474C220.66 50.048 220.304 50.8431 219.715 50.9405C216.163 51.5259 213.828 46.8919 218.217 45.4802ZM219.053 47.5963L219.415 47.6103L219.509 47.4516C219.288 47.0988 219.103 46.9932 218.684 46.9945C218.232 47.1503 218.165 47.094 217.893 47.4068C218.207 47.7149 218.635 47.625 219.053 47.5963Z" fill="#00A432"/>
<path d="M228.925 50.1324C226.509 45.9 231.874 43.7562 233.502 47.1005C233.762 47.6347 233.498 48.4163 233.205 48.9326C232.65 48.8993 230.749 48.8749 230.302 49.0761L230.276 49.2193C231.37 49.9775 232.25 49.188 233.088 49.5147C232.865 50.5745 232.464 50.7026 231.538 51.1164C230.447 50.8374 229.888 50.7174 228.925 50.1324ZM231.703 47.6195L231.913 47.571L231.952 47.4246C231.529 46.992 231.008 47.0634 230.448 47.14L230.308 47.3804L230.407 47.5416C231.006 47.6562 231.197 47.5714 231.703 47.6195Z" fill="#00A432"/>
<path d="M230.448 47.1407C231.008 47.0641 231.529 46.9927 231.952 47.4253L231.913 47.5717L231.703 47.6202C231.197 47.5721 231.006 47.6569 230.407 47.5423L230.308 47.3811L230.448 47.1407Z" fill="#FEFEFE" fill-opacity="0.01"/>
<path d="M202.047 49.5417C201.408 51.4489 199.283 51.4325 198.017 50.2016C197.478 49.6833 197.176 48.9656 197.182 48.2175C197.196 45.2853 200.376 44.6129 202.218 46.5384C202.389 47.5605 202.571 48.0098 202.134 48.9451C201.632 48.8915 199.347 48.8808 198.936 49.0698L198.906 49.2091C199.934 49.9916 200.968 49.1951 202.047 49.5417ZM200.294 47.5922L200.55 47.5074L200.506 47.2988C199.995 46.9897 199.626 47.0562 199.065 47.1487L198.956 47.4409C199.249 47.7647 199.859 47.5919 200.294 47.5922Z" fill="#00A432"/>
<path d="M222.592 45.4661C223.727 45.4731 223.815 46.4413 225.354 45.5087C225.747 45.2711 226.749 45.8576 227.19 46.0958C227.53 47.3067 228.128 50.4063 226.763 51.096C225.719 50.9997 225.816 49.2553 225.809 48.4951C225.797 47.74 225.67 46.8948 224.709 46.9146C223.268 47.7332 224.548 50.9269 223.04 51.0817C222.626 50.9373 222.483 50.6756 222.217 50.3227C222.174 49.1032 222.032 47.2866 222.184 46.0611C222.201 45.9271 222.488 45.5878 222.592 45.4661Z" fill="#00A432"/>
<path d="M166.408 45.3965C168.84 45.6621 166.692 48.9105 168.273 49.4957C168.7 49.4903 169.056 49.264 169.436 49.0664C169.538 48.0538 169.319 45.971 170.171 45.4782C171.62 45.4989 171.233 47.3225 171.307 48.3279C171.431 49.933 171.109 52.0603 169.311 50.0552C168.748 50.4192 168.2 50.8161 167.652 51.2035C166.196 50.0101 165.748 50.2087 165.834 47.7809C165.867 46.8255 165.683 46.1146 166.408 45.3965Z" fill="#00A432"/>
<path d="M191.692 51.0428C191.145 50.9155 188.776 50.2757 189.421 49.3362C190.1 48.9432 191.047 49.5547 191.863 49.5053C191.653 49.1114 190.136 48.4966 189.895 48.1273C188.359 45.7662 191.535 44.6365 193.177 46.0318C193.796 46.5579 193.302 47.1137 192.842 47.4562C192.449 47.2553 192.064 47.0089 191.627 47.0303L191.531 47.1526C191.857 47.6205 192.343 47.5709 192.775 47.7605C193.348 48.2139 193.888 49.1462 193.51 49.8779C193.145 50.588 192.394 50.8007 191.692 51.0428Z" fill="#00A432"/>
<path d="M163.659 43.3164C164.47 43.4564 164.669 44.197 164.992 44.8714C164.805 46.7453 165.034 48.3016 164.768 50.0845C164.744 50.249 164.374 50.8376 164.265 51.0088C164.013 51.0865 164.003 51.0865 163.738 51.0603C162.909 50.402 163.203 47.6062 163.134 46.5526C163.064 45.4712 163.043 44.2417 163.659 43.3164Z" fill="#00A432"/>
<path d="M235.075 45.4336C235.393 45.5035 236.26 45.9236 236.337 45.9075C237.004 45.7668 237.554 45.4165 238.234 45.6931C238.49 45.9314 238.512 45.9651 238.578 46.3081C238.229 47.1442 237.345 46.8829 236.584 47.4778C236.357 47.8633 236.374 48.3685 236.349 48.8236C236.319 49.6144 236.28 51.2903 235.04 50.8106C234.273 49.9727 234.481 47.1164 234.674 45.9842C234.7 45.8302 234.957 45.5538 235.075 45.4336Z" fill="#00A432"/>
<path d="M245.933 45.415C247.476 45.4598 247.024 49.1696 247.009 50.2255L246.249 50.9445L246.098 51.0441C244.878 50.8749 245.264 47.2214 245.3 46.3125C245.322 45.7926 245.563 45.6944 245.933 45.415Z" fill="#00A432"/>
<path d="M180.535 44.9088C180.05 44.7594 179.598 44.6122 179.09 44.5519C178.694 44.5049 178.169 44.6425 177.907 44.3786C178.183 42.8102 179.715 43.2559 180.802 43.5365C181.411 43.6941 181.985 43.5448 182.422 44.0835C182.268 44.7385 181.698 44.913 181.116 45.1635L180.535 44.9088Z" fill="#00A432"/>
<path d="M202.134 48.945C202.116 49.121 202.104 49.3849 202.047 49.5417C200.968 49.195 199.934 49.9915 198.906 49.209L198.936 49.0698C199.347 48.8808 201.633 48.8915 202.134 48.945Z" fill="#FEFEFE" fill-opacity="0.0235294"/>
<path d="M233.205 48.9335C233.123 49.168 233.059 49.2762 233.088 49.5156C232.25 49.1889 231.37 49.9784 230.276 49.2202L230.302 49.0771C230.749 48.8758 232.651 48.9002 233.205 48.9335Z" fill="#FEFEFE" fill-opacity="0.0431373"/>
<path d="M192.775 47.7609C192.342 47.5713 191.857 47.6208 191.531 47.1529L191.627 47.0306C192.063 47.0093 192.449 47.2557 192.841 47.4566L192.775 47.7609Z" fill="#FEFEFE" fill-opacity="0.113725"/>
<path d="M180.535 44.9082L181.116 45.1629L181.062 45.5691L180.315 45.3734L180.535 44.9082Z" fill="#FEFEFE" fill-opacity="0.0235294"/>
<path d="M59.8152 12.7739C60.0134 12.3561 60.1644 11.5468 60.2917 11.0718C61.0853 8.11168 63.6242 6.35075 66.4854 5.95923C71.2601 5.30587 76.7949 5.79499 78.5492 11.0681C78.7969 11.8123 79.0937 12.9912 78.917 13.7716C78.4668 14.3551 76.4747 14.0668 75.6991 14.0687C75.5114 13.4749 75.2698 12.8002 75.1762 12.1601C74.6142 8.3209 65.5553 8.32232 64.0645 11.1953C63.0552 13.1405 63.0683 17.2126 64.5316 19.158C69.4843 21.3354 76.3232 19.2356 78.4791 25.4381C79.2318 27.6038 79.0495 31.6963 78.9774 34.0435C78.9041 36.4323 75.821 39.5391 73.6127 40.2757C70.7683 41.2244 67.1705 41.1792 64.3548 40.0394C62.6111 39.2783 60.8485 37.5588 60.3134 35.7329C60.2392 35.4798 59.9117 34.4633 59.8152 34.2878V32.6494C60.2693 32.5706 62.5218 32.6206 63.1824 32.5984C63.5081 34.2844 63.9415 36.3782 65.7467 36.8599C68.2604 37.5306 71.5175 37.7124 73.7744 36.1507C74.3146 35.7769 75.0646 34.886 75.1181 34.3018C75.3314 31.9746 75.6122 27.9216 74.5711 25.8297C73.1312 22.9368 67.8142 24.2275 65.2226 23.1646C62.655 22.1886 61.4211 21.2454 60.3961 18.5911C60.1357 17.9167 60.1317 17.2861 59.8152 16.6804V12.7739Z" fill="#00A432"/>
<path d="M172.884 45.9876C174.007 45.5895 176.024 44.8514 176.74 46.4975C176.814 46.671 176.773 46.728 176.74 46.9096C176.09 47.5129 173.828 46.3654 173.772 48.41C173.764 48.7415 173.786 49.002 174 49.2677C174.966 49.9186 176.529 48.5617 176.81 49.7985C176.495 50.6721 175.092 50.6692 175.117 51.6082C175.326 51.9441 175.72 52.4474 175.66 52.8085C175.467 53.1707 175.195 53.3195 174.859 53.5559H173.619C174.71 52.4409 173.659 52.2778 173.847 50.6847C171.531 49.666 171.617 47.9287 172.884 45.9876Z" fill="#00A432"/>
</g>
<defs>
<clipPath id="clip0_73_258">
<rect width="203.185" height="53.8748" fill="white" transform="translate(59.8152)"/>
</clipPath>
</defs>
</svg>
