<svg width="367" height="152" viewBox="0 0 367 152" fill="none" xmlns="http://www.w3.org/2000/svg">
<path d="M8.93062 8.91699C9.90118 8.92819 37.3061 26.262 40.3653 27.9015C41.2022 28.3501 45.3421 31.1313 46.0931 31.4924C46.6921 31.7806 50.1941 30.2083 51.4144 30.0466C53.6566 29.7496 55.5592 29.6541 57.7881 29.9922C66.0766 31.2497 72.4627 38.4186 75.63 45.7916C75.9193 46.4651 76.2707 47.1572 76.5503 47.8267C76.9279 48.7307 76.9752 49.98 77.7521 50.6993C78.5351 51.4243 79.8035 52.0163 80.6402 52.5717C82.7531 53.9745 89.0491 57.3475 90.2911 59.0079C89.4315 58.7817 88.4731 58.3329 87.5948 58.0958C84.5854 57.2837 81.5928 56.2182 78.6043 55.4055C78.7966 56.3161 79.1883 60.5106 79.1933 61.413C79.895 61.4631 85.5357 62.2432 86.055 62.4704L86.0851 62.6287C85.689 62.934 80.1362 63.4702 79.2267 63.5363C79.1044 65.6117 79.3215 67.1509 78.804 69.3404C80.1625 68.817 81.8327 67.7783 82.9374 67.4889L83.0394 67.5487C82.9928 68.2602 79.469 70.6482 78.8097 71.5794C78.3095 72.2858 77.3233 77.1042 76.8667 78.4925C76.274 80.2947 75.3541 82.3182 74.4148 83.9629C73.425 85.696 72.4195 87.3787 71.1847 88.9503C68.4594 92.4188 64.0936 95.9452 59.7872 97.1224C59.6107 97.1856 59.836 97.1098 59.6502 97.1567C55.3389 98.2459 52.1202 98.0851 47.8475 96.7754C45.8656 97.9864 43.5175 100.545 41.6341 101.864C39.9915 103.017 34.2338 108.364 32.9715 108.728C32.1827 108.22 31.6004 104.22 31.3194 103.106L28.1464 90.4202C27.8898 89.3666 26.4204 83.2437 26.7103 82.7409C26.9423 82.6645 27.1822 82.6184 27.3796 82.8014C29.6323 84.8893 31.2809 88.0562 33.7313 89.8413C34.0263 90.0562 36.9948 88.8182 37.4695 88.6306C33.6283 84.3113 30.8451 76.0476 30.3814 70.3454C28.3461 70.6228 25.705 71.1403 23.6642 71.155C23.494 69.9037 22.5213 67.4537 22.3993 66.3913C22.2065 64.713 19.3717 55.4029 20.0221 54.4836C20.7653 54.2092 28.9934 55.4326 30.6821 55.5212C31.7087 50.6135 32.9854 46.5615 35.5577 42.2652C35.7815 41.8913 34.6355 41.6935 34.3044 41.587C28.4071 39.6875 22.446 37.9519 16.5445 36.0751C16.1264 35.942 15.0791 35.3728 14.9488 35.0215C14.3042 33.2839 13.9433 30.8773 13.5257 29.1044L11.1808 19.3779C10.7828 17.7457 8.71554 10.2541 8.93062 8.91699ZM58.2469 90.2872C61.0731 90.2334 62.9036 89.845 65.3001 88.1989C76.6602 80.396 79.3775 64.055 74.7276 51.6939C71.8755 44.1125 65.9376 37.2539 57.2095 37.4838L56.8786 37.494C34.338 40.2197 32.1469 82.168 52.9264 89.7711C55.1893 90.5991 55.9952 90.2494 58.2469 90.2872Z" fill="#4BA33E"/>
<path d="M55.5005 40.2831C55.672 40.2692 56.3968 40.4182 56.6115 40.4579C57.3222 41.4068 57.6619 41.8231 57.717 43.0759C57.8731 46.6279 57.9801 50.211 57.7236 53.7608C57.6523 54.7473 57.2572 55.9429 56.4342 56.5832C54.8064 57.7164 53.7081 55.8236 52.9051 54.7218C52.3405 53.8557 51.7835 53.0014 51.1931 52.1514C50.1101 50.5922 48.1815 48.7244 47.995 46.7907C47.8952 45.7567 48.2129 44.7256 48.8771 43.927C50.1692 42.3646 53.4357 40.475 55.5005 40.2831Z" fill="#FFB100"/>
<path d="M61.1661 71.3213C61.6029 71.3383 62.3756 71.4631 62.6661 71.8217C64.4956 74.0983 66.0669 76.7018 67.784 79.0644C70.5309 82.8438 68.1137 84.5352 65.15 86.5644C64.4663 86.965 63.0511 87.6494 62.3071 87.882C61.2416 88.2152 60.7486 87.9764 59.8712 87.4863C58.4141 84.6002 59.4293 80.7485 59.0395 77.6219C58.8728 76.2859 59.1868 74.5876 59.4058 73.2576C59.5491 72.3874 60.396 71.672 61.1661 71.3213Z" fill="#FFB100"/>
<path d="M55.043 71.3393C55.3576 71.3343 55.7119 71.31 56.0089 71.4315C56.6858 71.7083 57.1535 72.3811 57.4136 73.0369C57.9414 74.3681 57.9199 85.4862 57.4026 86.638C57.1223 87.2592 56.6038 87.7416 55.9641 87.9766C54.9938 88.3279 52.9797 87.2171 51.9952 86.7673C50.9121 86.2099 48.4155 84.2501 48.0733 82.9971C47.2747 80.0724 51.1 76.605 52.4066 74.2107C52.9063 73.2951 54.1558 71.6557 55.043 71.3393Z" fill="#FFB100"/>
<path d="M70.7118 49.3286C73.6431 49.3621 74.9439 57.4295 75.1608 59.8345C75.5417 64.0561 70.7496 63.0671 67.8091 63.0591C66.9076 63.0621 65.3328 63.1564 64.5849 62.7319C63.1805 61.9347 63.1348 59.1335 63.9419 57.9366C65.812 55.1632 67.5074 52.2654 69.6632 49.7075C69.7987 49.5468 70.4819 49.3865 70.7118 49.3286Z" fill="#FFB100"/>
<path d="M45.7952 49.3101C46.2349 49.326 46.8072 49.3744 47.1457 49.7273C48.5069 51.1987 49.5662 52.9705 50.7144 54.6172C51.8836 56.2944 53.3964 58.0033 53.4448 60.1246C53.5079 62.8952 51.6244 63.0341 49.4562 63.0571C47.7003 63.0637 44.4461 63.2816 42.8149 62.7086C41.1041 62.1078 41.8588 58.2722 42.1532 56.9303C42.6289 54.7612 43.3783 52.4032 44.281 50.3534C44.5924 49.6291 45.1156 49.54 45.7952 49.3101Z" fill="#FFB100"/>
<path d="M59.1633 44.2292C59.2353 42.8544 59.4186 39.9259 61.5585 40.3163C64.3369 40.8231 69.1755 43.4169 68.9568 46.7904C68.8281 48.267 66.4957 51.0583 65.5969 52.3261C64.6542 53.6557 63.7521 55.3019 62.5425 56.4004C61.6477 57.213 60.7387 56.7593 59.8487 56.2343C59.3482 55.2977 59.0248 53.7684 59.0888 52.7396C59.2419 52.0849 59.1579 48.0737 59.1487 47.1547L59.1633 44.2292Z" fill="#FFB100"/>
<path d="M65.4154 65.3943C66.8885 65.3196 73.1028 65.0958 74.0994 65.7086C74.6655 66.0567 74.9763 66.6631 75.1107 67.2971C75.6698 69.9365 73.6652 76.0924 72.1537 78.4453C71.6615 78.9842 70.4979 79.3831 70.0077 78.8108C67.7843 76.2148 65.7312 73.0844 63.8356 70.2381C62.8966 68.8282 63.2026 65.7563 65.4154 65.3943Z" fill="#FFB100"/>
<path d="M44.2813 65.3863C45.8075 65.3006 50.5876 65.2978 51.9632 65.4853C54.7842 67.4795 53.0548 70.5262 51.4645 72.5844C50.5185 73.8086 49.504 75.3618 48.6708 76.6746C48.1803 77.1985 47.4727 78.1988 46.9528 78.825C46.6363 78.9454 46.3254 79.0571 45.9825 79.0567C45.4898 79.0561 45.1321 78.8168 44.8023 78.4698C43.2474 76.834 41.7016 70.5928 41.74 68.3505C41.7587 67.2557 42.0078 66.2516 42.8101 65.4719C43.2829 65.4286 43.8035 65.4117 44.2813 65.3863Z" fill="#FFB100"/>
<path d="M57.9657 58.999C58.6967 58.9502 59.2954 58.9341 59.9594 59.314C63.2553 61.1992 63.077 68.2845 59.1459 69.3347C53.7094 70.4604 53 59.8374 57.9657 58.999Z" fill="#FFB100"/>
<path d="M58.8898 46.8979L59.0144 47.6253L59.1487 47.1552C59.1579 48.0742 59.2419 52.0854 59.0888 52.7401C58.5707 51.9567 58.7562 50.1522 58.7808 49.1453C58.8728 48.6635 58.8758 47.4432 58.8898 46.8979Z" fill="#000E00" fill-opacity="0.494118"/>
<path d="M58.7808 49.1451C58.7654 47.9636 58.6785 45.3939 58.8138 44.3197L58.9396 44.2965L59.021 44.3504L59.1633 44.2295L59.1487 47.155L59.0144 47.6251L58.8898 46.8977C58.8758 47.443 58.8728 48.6633 58.7808 49.1451Z" fill="#000E00" fill-opacity="0.360784"/>
<path d="M153.773 35.6484C157.38 35.3733 161.235 36.2314 164.184 38.3863C169.637 42.3724 168.208 49.1483 168.235 54.9798L168.28 64.3402C168.303 66.4231 168.426 70.0611 168.106 72.01C167.842 73.5947 167.197 75.0914 166.225 76.3706C164.393 78.8241 161.613 80.1583 158.634 80.5938C155.009 81.1137 150.269 80.8399 147.218 78.5706C145.071 76.9837 143.657 74.5964 143.297 71.9513C143.029 70.0807 143.097 67.6107 143.102 65.6693L143.131 56.9303C143.139 53.9248 143.157 50.7459 143.087 47.744C142.918 40.4851 146.708 36.6306 153.773 35.6484ZM156.421 76.4271C160.054 76.1878 163.289 75.67 163.463 71.2535C163.751 63.9298 163.528 56.5817 163.586 49.2485C163.602 47.1566 163.533 43.4916 161.704 42.094C159.883 40.7027 157.517 39.8137 155.204 39.883C153.138 40.4589 149.967 41.1516 148.804 43.165C148.267 44.0953 147.999 45.1778 147.891 46.2407C147.64 48.7036 147.485 70.7268 147.901 72.2069C148.263 73.4925 148.804 74.6345 150.011 75.3009C151.794 76.2839 154.428 76.4335 156.421 76.4271Z" fill="#FFB100"/>
<path d="M350.935 35.6339C353.605 35.3598 355.57 35.6282 358.24 36.1288C366.844 37.7427 367.07 46.8186 365.916 53.7999C365.523 56.1745 364.116 57.7814 362.02 59.0486C363.654 60.4841 364.885 61.7504 365.661 63.8078C365.949 64.5683 366.301 66.6736 366.278 67.3601C366.209 69.4022 366.585 79.7464 366.082 80.9C365.3 81.4963 362.973 81.5574 362.131 81.0963C361.558 80.251 361.781 77.9037 361.79 76.8099C361.814 74.4695 361.824 72.1287 361.82 69.788C361.798 66.836 361.715 65.3878 359.596 63.2997C358.622 62.4469 357.211 61.6985 355.894 61.5938C352.824 61.3495 349.465 61.2968 346.408 61.5958C345.362 61.6983 345.874 65.4292 345.754 66.2033C345.456 68.5627 346.365 79.6629 345.63 81.0439C344.851 81.5921 342.259 81.3493 341.256 81.2752C341.114 80.0381 341.17 77.5322 341.179 76.2363L341.232 67.5962L341.192 53.9785C341.19 49.5343 340.77 43.5116 343.295 39.6098C344.922 37.0936 348.134 36.1793 350.935 35.6339ZM354.819 56.4975C360.981 55.8069 361.855 53.6651 361.746 47.8939C361.726 46.8215 361.756 45.8205 361.622 44.7392C361.535 44.0695 361.378 43.4113 361.149 42.7756C358.546 40.6069 355.885 40.0119 352.561 40.2037C350.692 40.5325 348.225 40.8634 346.634 42.8603C345.538 44.237 345.491 55.3862 346.155 56.2588C346.745 57.0325 353.123 56.7451 354.819 56.4975Z" fill="#4BA33E"/>
<path d="M269.213 35.6579C272.574 35.2153 277.461 36.9183 279.791 39.433C282.536 42.3974 282.826 43.9006 282.788 47.8286C282.68 58.9494 282.949 70.1048 282.787 81.2166C281.271 81.4031 279.74 81.3498 278.214 81.3398C277.948 78.2154 278.066 74.208 278.072 71.0063L278.081 54.9039C278.079 51.8593 278.091 48.9759 277.912 45.9328C277.663 41.6969 274.405 41.0159 270.787 40.267C268.827 40.091 264.232 40.9724 263.329 42.705C261.819 45.604 262.302 51.3683 262.309 54.569L262.332 71.3823C262.346 72.9765 262.788 80.231 262.136 81.0256C261.129 81.5878 258.928 81.3536 257.736 81.2868C257.534 78.6156 257.669 74.7455 257.687 71.9852L257.73 57.4398C257.75 53.1491 257.481 48.4312 257.873 44.1875C258.03 42.4811 259.083 40.608 260.215 39.3314C262.584 36.6607 265.8 35.9228 269.213 35.6579Z" fill="#4BA33E"/>
<path d="M324.822 35.5341C326.492 35.3857 328.54 35.5728 330.251 35.515C331.41 35.4759 335.515 35.2493 336.2 35.9131C336.575 36.5759 336.464 37.3108 336.416 38.0403C336.385 38.5264 336.412 39.8241 335.992 40.1505C334.578 41.2503 321.579 38.8 318.336 41.741C317.983 42.061 317.744 42.4214 317.601 42.8754C316.68 45.7738 317.282 51.6566 317.113 54.9689C317.594 54.9235 318.158 54.9245 318.643 54.9332C324.185 55.0326 329.731 54.8954 335.273 54.9822C336.735 55.0053 336.469 58.1755 336.258 59.1225C335.785 59.4459 318.798 59.4556 317.149 59.2368C317.383 63.8522 317.153 69.2316 317.299 74.0139L317.501 75.8963C320.996 76.7122 327.291 76.3503 331.038 76.4293C332.531 76.4609 334.417 76.2835 335.87 76.5846C336.71 77.5991 336.402 79.7184 336.322 81.0481C335.855 81.1799 335.375 81.2604 334.891 81.2883C332.674 81.3982 329.883 81.2426 327.589 81.25C324.589 81.2598 321.306 81.2971 318.344 80.9876C317.346 80.8833 315.177 80.2879 314.517 79.592C313.156 78.1537 312.855 75.7413 312.831 73.8602C312.795 70.9909 312.831 68.1502 312.832 65.2981L312.76 55.2309C312.758 53.873 312.726 52.4791 312.76 51.1134C312.866 46.8746 312.181 41.6317 315.291 38.2404C317.717 35.594 321.508 35.6285 324.822 35.5341Z" fill="#4BA33E"/>
<path d="M241.141 35.5328C241.683 35.4856 242.182 35.4719 242.726 35.4903C246.053 35.6029 249.291 35.3257 252.612 35.6555C252.599 36.7271 252.665 39.2955 252.258 40.1572C251.696 40.6382 248.997 40.3379 248.145 40.3201C245.633 40.2816 243.121 40.2617 240.608 40.2604C237.995 40.2832 235.84 40.4815 233.958 42.3969C233.075 45.4449 233.293 51.6241 233.28 54.9905C234.758 54.8655 236.978 54.9569 238.54 54.9663L247.062 54.9706C248.796 54.9669 250.688 55.0161 252.39 54.7461C252.516 56.0225 252.536 58.0997 252.582 59.4312C250.884 59.2539 247.924 59.3113 246.135 59.3072C241.848 59.3341 237.56 59.3356 233.272 59.3119C233.307 64.1584 233.394 69.0044 233.533 73.8492C233.518 74.4561 233.464 75.1759 233.773 75.6861C235.142 76.8286 245.496 76.3325 247.9 76.422C249.012 76.4633 251.133 76.2152 252.236 76.4522C252.653 76.9986 252.698 80.4603 252.24 81.0253C251.485 81.5054 245.642 81.3264 244.233 81.2363C240.176 80.9764 234.268 82.0793 230.817 79.6436C229.317 78.5854 229.094 75.4415 229.08 73.7256C229.031 67.9927 229.076 62.1906 229.043 56.4505C229.235 51.9025 228.66 47.0552 229.382 42.5554C230.434 36.0012 236.021 35.6902 241.141 35.5328Z" fill="#4BA33E"/>
<path d="M212.193 35.3621C214.293 35.2207 217.898 35.9558 219.692 37.0763C223.725 39.5948 224.123 42.3942 225.228 46.307C223.907 46.3615 222.567 46.3188 221.244 46.2929C220.195 44.8076 219.148 42.6878 217.819 41.6243C216.511 40.5786 213.831 39.5456 212.161 39.8697C210.402 40.2117 206.591 41.2929 205.445 42.8399C205.097 43.3096 204.788 45.4545 204.774 46.0957C204.666 51.0315 204.699 55.961 204.711 60.9102C204.72 64.701 204.588 68.8698 204.89 72.6333C204.943 73.2929 205.25 74.4857 205.858 74.8299C208.777 76.4808 212.33 76.918 215.605 76.3142C217.188 76.0222 218.365 75.5893 219.243 74.3182C219.668 73.1628 220.197 70.9265 221.393 70.4454C222.038 70.1859 224.024 70.2926 224.683 70.5739C224.814 70.7279 224.964 70.9456 224.961 71.1603C224.794 84.7599 200.911 84.618 199.852 71.7979C199.532 67.9313 199.731 63.386 199.725 59.4515L199.714 51.3432C199.71 46.9392 199.327 43.4264 202.323 39.8294C205.179 36.4 207.942 35.7847 212.193 35.3621Z" fill="#4BA33E"/>
<path d="M287.015 35.4961C294.158 35.3523 301.46 35.609 308.722 35.438C308.728 37.0067 308.789 38.8894 308.598 40.4225C307.28 40.449 300.79 40.3672 300.015 40.1988C299.758 43.3957 300.015 47.8455 300.025 51.1643L300.021 72.8157C300.059 75.0033 300.047 77.1715 299.896 79.3563C299.846 80.088 299.755 80.887 298.916 81.1304C298.036 81.3855 296.555 81.5685 295.776 80.9756C295.442 80.7216 295.301 79.7448 295.255 79.3258C295.063 75.7937 295.146 72.2244 295.147 68.6817L295.153 47.6769C295.152 46.4374 295.22 41.213 294.928 40.4085C294 40.229 287.906 40.4054 286.6 40.4384C286.439 39.4007 286.371 37.106 286.507 36.0053C286.544 35.7057 286.789 35.6221 287.015 35.4961Z" fill="#4BA33E"/>
<path d="M175.499 35.3879C176.111 35.3414 176.402 35.2603 176.874 35.5544C177.076 36.2205 177.006 41.3845 177.007 42.5386L176.996 64.0385C176.991 66.3189 176.839 72.9912 177.166 74.7782C177.575 75.3246 178.446 76.3168 179.142 76.3673C184.74 76.7731 190.659 76.4117 196.267 76.5553C196.352 77.8735 196.222 79.7759 196.149 81.1306C195 81.3448 194.071 81.3164 192.912 81.2817C188.668 81.1223 177.247 82.2139 174.363 79.6619C172.938 78.4007 172.662 75.8839 172.557 74.0858C172.218 68.2869 172.529 62.3424 172.513 56.5295L172.483 44.9989C172.48 42.3119 172.469 39.6371 172.628 36.954C172.713 35.5219 173.036 35.3885 174.431 35.3929C174.771 35.3939 175.157 35.3875 175.499 35.3879Z" fill="#FFB100"/>
<path d="M115 44.5953C115.257 44.0525 115.454 43.001 115.619 42.3838C116.65 38.5377 119.949 36.2497 123.667 35.741C129.871 34.8921 137.062 35.5276 139.341 42.3789C139.663 43.3459 140.049 44.8777 139.819 45.8916C139.234 46.6499 136.646 46.2752 135.638 46.2776C135.394 45.5062 135.08 44.6296 134.959 43.7978C134.228 38.8095 122.458 38.8114 120.521 42.5443C119.21 45.0717 119.227 50.3626 121.128 52.8903C127.563 55.7194 136.449 52.9911 139.25 61.0501C140.228 63.864 139.991 69.1815 139.898 72.2311C139.802 75.3349 135.797 79.3716 132.927 80.3288C129.231 81.5614 124.557 81.5027 120.898 80.0217C118.633 79.0328 116.343 76.7986 115.647 74.4263C115.551 74.0974 115.125 72.7766 115 72.5486V70.4198C115.59 70.3174 118.517 70.3824 119.375 70.3535C119.798 72.5442 120.361 75.2647 122.707 75.8905C125.973 76.762 130.205 76.9982 133.137 74.9691C133.839 74.4834 134.814 73.3258 134.883 72.5668C135.16 69.543 135.525 64.2769 134.172 61.5589C132.302 57.8001 125.393 59.4771 122.026 58.0961C118.69 56.828 117.087 55.6024 115.755 52.1537C115.416 51.2775 115.411 50.4581 115 49.6711V44.5953Z" fill="#FFB100"/>
<g clip-path="url(#clip0_75_785)">
<path d="M168.578 129.162C170.045 128.984 173.879 129.135 175.584 129.135L190.616 129.118L245.163 129.084L263.061 129.106L268.519 129.106C269.094 129.106 270.631 129.143 271.13 129.095C273.291 129.22 276.078 129.136 278.287 129.134L291.187 129.123C292.734 129.123 295.757 129.029 297.209 129.134L342.721 129.121L355.166 129.126C356.295 129.129 360.595 129.107 361.433 129.328C361.585 129.364 361.92 129.418 362.001 129.527C361.887 129.612 361.798 129.64 361.776 129.787C361.642 130.663 362.018 131.491 362.092 132.363C362.169 133.252 361.986 134.383 362.233 135.222C362.444 135.297 362.699 135.228 362.915 135.192L362.654 136.402C362.714 136.761 362.827 137.174 362.785 137.538C362.71 138.203 361.764 140.377 362.354 140.801C363.127 141.356 365.032 141.139 366 141.136V143.277C364.814 143.321 362.55 143.047 361.713 143.945C361.221 144.472 361.115 145.229 360.997 145.915C360.971 145.622 360.947 145.323 360.948 145.028C360.951 144.489 361.103 143.542 361.502 143.146C361.33 143.132 361.206 142.957 361.092 142.839C360.74 142.986 360.273 143.191 359.889 143.193L359.682 143.092C359.252 143.163 358.696 143.04 358.258 142.996C358.137 142.81 358.205 142.471 358.237 142.26C358.3 141.841 358.763 141.753 359.071 141.522C360.097 140.753 359.506 137.601 359.694 136.287L359.873 136.231L360.381 136.562L360.49 136.481C360.396 135.254 360.411 133.716 360.008 132.562L359.729 132.433C359.432 132.524 359.408 132.546 359.219 132.794C358.225 132.319 357.102 132.547 355.966 132.517C355.044 132.349 353.975 132.417 353.033 132.405C352.79 132.66 352.743 133.72 352.604 134.127L352.445 134.159C352.164 133.775 352.5 133.318 352.2 132.892C351.845 132.388 350.943 131.892 350.344 131.788C349.511 131.644 348.604 131.733 347.758 131.69C346.306 131.615 343.608 131.223 342.236 131.521C342.062 131.559 341.849 131.804 341.696 131.91C340.936 132.434 340.399 131.561 339.719 131.519C339.255 131.49 337.655 131.962 337.534 131.929C337.359 131.883 337.267 131.637 337.037 131.599C336.043 131.44 335.554 132.326 334.878 132.787C334.145 133.288 334.185 132.639 333.637 132.538C333.272 132.872 333.38 133.489 333.266 133.981L333.134 133.964C332.813 133.364 332.793 132.432 332.707 131.753C331.77 131.382 330.552 132.158 329.605 131.869C329.36 131.794 329.24 131.512 329.013 131.415C328.433 131.169 327.643 131.948 327.049 131.997C326.005 132.085 323.139 130.97 322.271 131.468C322.159 131.532 322.152 131.706 322 131.766C321.614 131.919 320.963 131.559 320.527 131.631C320.493 131.636 320.46 131.642 320.426 131.649C320.09 131.725 320.242 132.127 320.107 132.342C318.429 132.314 316.744 132.339 315.091 132.677C314.744 132.748 314.558 133.15 314.25 133.158C314.2 132.951 314.147 132.781 314.035 132.6L313.99 132.602C313.806 132.613 313.521 132.655 313.35 132.586C313.042 132.462 312.784 132.058 312.47 131.885C312.276 131.777 312.039 131.856 311.868 131.705C312.105 131.462 312.481 131.209 312.502 130.872C312.468 130.836 312.43 130.803 312.39 130.773C312.215 130.646 311.73 130.553 311.516 130.591C311.556 130.784 311.529 130.856 311.47 131.042C311.443 131.086 309.778 132.402 309.704 132.418C309.65 132.429 309.593 132.433 309.539 132.438C309.444 132.447 309.362 132.516 309.292 132.577C310.234 132.437 312.011 132.407 312.831 132.929C313.093 133.337 312.391 136.697 312.256 137.321C312.099 138.04 311.481 141.43 311.16 141.877C311.008 142.597 310.787 143.669 310.133 144.094C310.007 144.177 309.879 144.258 309.75 144.336C308.844 144.306 306.675 144.481 306.048 143.907C305.701 143.124 306.295 141.329 305.719 140.879C305.335 140.915 303.945 142.278 303.656 142.629C303.27 143.096 302.93 143.623 302.512 144.059C301.943 144.247 301.418 144.387 300.809 144.386C300.583 144.385 299.945 144.184 299.817 144.232C299.203 144.397 298.862 144.301 298.284 144.077C297.725 143.025 297.344 141.423 296.485 140.601L296.286 140.614C295.595 141.662 295.671 143.142 295.001 144.249C293.81 144.298 292.502 144.194 291.344 144.484C291.199 144.684 291.108 144.853 291.043 145.092C291.036 145.243 291.071 145.416 290.957 145.52C290.839 145.628 290.714 145.705 290.577 145.784L290.551 145.799C290.449 146.07 290.551 146.201 290.649 146.464C290.639 146.472 290.629 146.481 290.618 146.489C290.345 146.7 289.777 146.688 289.449 146.645C289.073 146.595 288.704 146.487 288.467 146.173L288.452 146.152L287.893 146.546L287.919 146.773L287.843 146.81C287.601 146.004 287.219 146.118 286.974 145.595C286.779 145.179 286.881 144.527 286.746 144.06C286.639 143.691 286.357 143.599 286.05 143.428C285.76 142.054 284.912 140.755 284.014 139.702C284.001 139.376 283.997 139.043 284.016 138.719C284.036 138.372 284.096 137.891 284.374 137.651C284.402 137.626 284.403 137.588 284.406 137.551C284.464 136.844 283.658 137.059 283.42 136.688C283.328 136.543 283.434 136.368 283.271 136.169C282.968 136.173 283.041 136.433 282.861 136.46C282.482 136.518 282.038 136.311 281.682 136.397C281.649 136.405 281.616 136.413 281.585 136.424C281.827 136.613 281.847 136.77 281.886 137.075C281.907 137.227 281.867 137.393 281.829 137.54C281.635 137.742 281.557 137.791 281.267 137.797C280.931 137.804 280.629 137.758 280.291 137.807L279.304 137.716C277.192 137.551 275.081 137.516 272.964 137.481C271.479 137.663 268.558 137.459 266.907 137.451L251.321 137.338L197.928 137.368L91.1468 137.582L32.7052 137.471L10.5847 137.334C8.93945 137.336 7.28391 137.238 5.64096 137.271C5.63523 137.049 5.62905 136.831 5.65795 136.61C5.80392 136.485 5.95609 136.351 6.11995 136.25C6.56514 135.977 6.88296 136.01 7.35618 136.12C7.56286 136.167 7.77511 136.203 7.96257 136.082C8.05782 136.013 8.15364 135.944 8.24439 135.869C8.42041 135.725 8.47091 135.631 8.49274 135.414C8.11593 135.339 7.81806 135.513 7.43774 135.575L7.06782 135.429C6.51061 134.89 7.09264 134.434 6.87365 133.887C6.64904 133.827 6.5762 133.826 6.35087 133.882C6.36696 134.23 6.38498 134.541 6.27515 134.876C6.25938 134.924 6.16665 134.952 6.12048 134.976C5.92769 134.779 5.59654 134.766 5.33633 134.724C5.4954 133.776 5.98701 129.867 6.56415 129.345C6.57317 129.337 6.58236 129.329 6.59169 129.321C6.92115 129.044 34.0884 129.102 36.8864 129.103L125.05 129.117L154.358 129.124L163.231 129.127C164.923 129.125 166.919 129.076 168.578 129.162ZM362.593 136.521C362.397 136.631 362.069 137.172 361.969 137.169C361.954 136.893 361.866 136.417 361.653 136.222C361.619 136.191 361.584 136.163 361.546 136.138C361.292 136.163 361.103 136.277 360.943 136.488C360.882 136.569 360.85 136.675 360.83 136.773C360.915 137.034 361.173 137.21 361.241 137.409C361.299 137.584 361.112 138.118 361.085 138.321C361.026 138.746 361.185 139.476 361.013 139.839L360.587 140.011C360.539 140.238 361.657 141.892 361.629 143.07C361.743 142.868 361.863 142.613 361.9 142.385C362.023 141.635 361.947 140.835 362.041 140.074C362.192 138.867 362.59 137.751 362.593 136.521ZM287.991 138.753L288.242 138.737C288.404 138.537 288.422 138.501 288.43 138.244C288.266 138.055 288.174 137.969 287.91 137.953C287.485 137.928 286.822 138.19 286.442 137.961C286.634 137.851 286.658 137.772 286.764 137.583C286.758 137.156 286.516 137.018 286.215 136.725C285.886 136.405 285.788 136.245 285.321 136.2C285.187 136.489 285.048 136.674 285.087 136.995C285.22 137.095 285.457 137.222 285.501 137.379C285.503 137.384 285.504 137.389 285.506 137.394C285.582 137.671 285.103 138.361 285.396 138.535C285.482 138.586 285.532 138.598 285.632 138.584C286.745 138.435 286.756 139.695 287.991 138.753Z" fill="#01C84C"/>
<path d="M7.96258 136.082C8.13695 136.275 8.25226 136.349 8.5088 136.397C9.36099 136.014 8.59858 135.414 9.91558 135.411L9.93228 135.424C10.5504 135.878 12.7427 136.037 13.4981 135.912C15.346 135.608 17.1875 135.93 19.0684 135.872C19.5687 135.856 20.5887 135.556 21.0035 135.683C21.0395 135.694 21.0739 135.705 21.1087 135.72L21.0702 135.814C19.9214 135.93 18.7386 136.154 17.5871 136.13L17.5808 136.201C18.6412 136.176 19.6549 136.46 20.7181 136.477C24.5209 136.539 28.3319 136.492 32.1355 136.495L164.248 136.576C164.514 136.575 164.773 136.482 165.042 136.475L169.29 136.377C170.869 136.348 172.468 136.457 174.047 136.509C174.467 136.523 176.663 136.583 176.888 136.438L176.569 136.201L176.662 136.111C176.984 136.195 177.079 136.386 177.419 136.302C177.221 136.01 177.216 135.926 177.204 135.588C177.331 135.365 177.51 135.306 177.737 135.22C178.128 135.32 178.485 135.439 178.853 135.607C178.898 135.809 178.912 136.006 178.923 136.212C178.959 136.207 178.994 136.198 179.029 136.189C179.381 136.094 179.711 135.579 180.058 135.4C180.228 135.788 180.268 135.931 180.648 136.133C180.999 136.138 181.289 135.871 181.561 135.675C181.752 135.979 181.506 136.234 181.884 136.361C182.102 136.289 182.307 136.213 182.512 136.108C182.602 136.16 182.788 136.301 182.882 136.32C183.641 136.476 184.733 136.257 185.54 136.276C186.895 136.309 188.267 136.254 189.614 136.298C191.024 136.344 192.417 136.495 193.838 136.507C194.923 136.516 195.963 136.38 197.03 136.359C197.524 136.349 198.038 136.434 198.534 136.458L198.29 136.215C198.306 136.205 204.547 136.38 205.727 136.329L205.803 136.425L205.872 136.385L205.256 136.521L205.265 136.588C206.832 136.308 208.332 136.589 209.9 136.582C210.422 136.579 210.706 136.255 211.202 136.252C212.663 136.242 214.136 136.368 215.599 136.402C218.619 136.464 221.638 136.494 224.658 136.491C225.313 136.492 228.294 136.659 228.618 136.533L228.367 136.406L228.369 136.217C228.419 136.18 228.492 136.111 228.547 136.088C228.661 136.041 233.523 136.07 233.837 136.124C234.105 136.171 234.085 136.5 234.406 136.543C234.986 136.619 235.879 136.304 236.524 136.296C237.462 136.285 238.411 136.406 239.35 136.446C240.481 136.495 241.63 136.463 242.761 136.433C242.34 136.219 241.655 136.2 241.182 136.125L241.415 136.194C241.717 135.921 243.142 136.06 243.606 136.082C243.784 136.091 243.953 136.191 244.068 136.323C244.077 136.332 244.085 136.342 244.093 136.351L244.031 136.457L243.605 136.503C243.82 136.499 244.018 136.486 244.215 136.587L244.318 136.242C244.974 136.043 246.854 135.954 247.445 136.27C247.578 136.342 247.776 136.504 247.913 136.543C248.342 136.666 249.586 136.5 250.142 136.531C253.554 136.722 256.935 136.679 260.35 136.703C261.532 136.711 262.71 136.796 263.891 136.805C265.94 136.821 267.934 136.886 269.979 137.001C270.549 137.033 271.137 136.98 271.701 137.05C271.998 137.087 272.785 137.251 272.964 137.481C271.479 137.664 268.558 137.459 266.907 137.451L251.321 137.338L197.928 137.369L91.1468 137.582L32.7052 137.472L10.5847 137.334C8.93946 137.337 7.28392 137.238 5.64097 137.271C5.63524 137.049 5.62905 136.831 5.65796 136.61C5.80393 136.485 5.95609 136.351 6.11996 136.25C6.56515 135.977 6.88296 136.01 7.35618 136.12C7.56287 136.168 7.77512 136.203 7.96258 136.082Z" fill="#15C653"/>
<path d="M245.73 136.331C246.184 136.285 246.821 136.161 247.248 136.348C247.496 136.457 247.518 136.516 247.614 136.761C247.103 136.764 246.26 136.875 245.816 136.634L245.73 136.331Z" fill="#07CF5D"/>
<path d="M309.292 132.576C310.234 132.437 312.011 132.406 312.831 132.929C313.093 133.336 312.391 136.697 312.256 137.321C312.099 138.04 311.481 141.43 311.16 141.876C311.008 142.596 310.787 143.669 310.133 144.094C310.007 144.177 309.879 144.258 309.75 144.336C308.844 144.306 306.675 144.48 306.048 143.906C305.701 143.124 306.295 141.328 305.719 140.878C305.335 140.915 303.945 142.277 303.656 142.628C303.27 143.096 302.93 143.622 302.512 144.059C301.943 144.246 301.418 144.386 300.809 144.385C300.583 144.385 299.945 144.183 299.817 144.232C299.203 144.397 298.862 144.301 298.284 144.076C297.725 143.025 297.344 141.422 296.485 140.6L296.286 140.613C295.595 141.662 295.671 143.141 295.001 144.249C293.811 144.298 292.502 144.194 291.344 144.483L291.292 144.431C291.214 144.425 291.137 144.414 291.06 144.399C290.821 144.353 290.561 144.287 290.418 144.072C289.886 143.262 291.383 138.4 291.61 137.231C291.793 136.067 291.988 134.905 292.157 133.739L292.164 133.725C292.353 133.358 292.27 133.084 292.586 132.751C292.783 132.543 293.243 132.56 293.511 132.554C294.422 132.536 297.141 132.308 297.811 132.934C298.34 133.43 298.549 134.317 298.873 134.954C298.901 135.686 299.609 136.345 299.728 137.058C299.898 137.41 300.701 138.774 300.714 139.067C300.858 139.293 301.014 139.473 301.2 139.662C301.463 139.682 301.607 139.625 301.83 139.481C302.618 138.973 305.22 136.008 305.701 135.228C305.81 135.05 305.863 134.806 305.907 134.603C306.784 134.294 307.016 133.794 307.608 133.138C308.094 132.599 308.622 132.613 309.292 132.576Z" fill="#3F413E"/>
<path d="M292.157 133.739L292.164 133.725C292.353 133.358 292.27 133.084 292.586 132.751C292.783 132.543 293.243 132.56 293.511 132.555C294.422 132.537 297.141 132.309 297.811 132.935C298.34 133.43 298.549 134.317 298.873 134.955C298.901 135.686 299.609 136.345 299.728 137.058C299.534 137.281 299.478 137.362 299.184 137.449C298.819 137.268 298.769 136.78 298.437 136.667C298.216 136.796 298.174 136.982 298.11 137.226C298.092 137.297 298.077 137.369 298.065 137.442C298.05 137.409 298.038 137.375 298.026 137.341C297.776 136.616 298.343 136.207 297.573 135.591C297.429 135.605 297.413 135.611 297.304 135.705C297.233 135.147 297.45 133.886 297.03 133.499C296.611 133.479 296.243 133.132 295.902 133.445C295.578 133.742 295.53 134.3 295.481 134.709C295.48 134.4 295.446 134.249 295.252 133.998C294.986 133.819 294.745 133.758 294.431 133.818C294.078 133.885 293.681 134.061 293.477 134.37C293.075 134.978 293.578 135.642 293.352 136.219C293.297 136.359 293.194 136.422 293.084 136.517L292.71 136.596C292.758 137.819 292.315 139.24 292.141 140.477L292.065 140.512L291.919 140.096L291.805 140.166C291.728 140.649 291.833 141.109 291.776 141.579C291.747 141.832 291.553 142.071 291.594 142.314C291.663 142.74 292.162 143.051 292.238 143.483C292.262 143.625 292.231 143.754 292.145 143.874C291.968 144.122 291.557 144.296 291.292 144.431C291.214 144.425 291.137 144.414 291.06 144.4C290.821 144.353 290.561 144.288 290.418 144.072C289.886 143.263 291.383 138.4 291.61 137.231C291.793 136.067 291.988 134.906 292.157 133.739Z" fill="#334939"/>
<path d="M309.292 132.576C310.234 132.437 312.011 132.406 312.831 132.929C313.093 133.336 312.391 136.697 312.256 137.321C312.099 138.04 311.481 141.43 311.16 141.876C311.045 141.051 310.961 137.611 311.093 136.8C311.233 135.942 311.586 135.218 311.659 134.313L311.152 133.548C310.795 133.468 310.401 133.379 310.036 133.365C309.717 133.352 309.368 133.718 309.091 133.874C308.817 134.029 308.418 133.973 308.176 134.133C307.789 134.388 307.432 134.988 307.093 135.328C305.814 136.609 304.465 137.762 303.259 139.133C302.957 139.478 302.813 139.929 302.475 140.247C302.259 140.451 301.777 140.62 301.482 140.608C301.21 140.596 301.039 140.492 300.863 140.291C300.603 139.993 300.692 139.439 300.714 139.067C300.858 139.293 301.014 139.473 301.2 139.662C301.463 139.682 301.607 139.625 301.83 139.481C302.618 138.973 305.22 136.008 305.701 135.228C305.81 135.05 305.863 134.806 305.907 134.603C306.784 134.294 307.016 133.794 307.608 133.138C308.094 132.599 308.622 132.613 309.292 132.576Z" fill="#334939"/>
<path d="M310.704 134.01C310.887 134.247 310.977 134.305 310.96 134.616L310.905 134.44C310.846 134.709 310.792 134.945 310.655 135.187L310.489 135.209C310.184 135.097 309.735 134.939 309.569 134.644C309.735 134.079 310.299 134.27 310.704 134.01Z" fill="#444244"/>
<path d="M299.816 141.816C299.864 141.836 299.905 141.861 299.949 141.889C300.168 142.032 300.315 142.261 300.366 142.518C300.435 142.865 300.296 143.107 300.107 143.385L299.912 143.313C299.855 143.219 299.805 143.122 299.761 143.021C299.583 142.605 299.654 142.222 299.816 141.816Z" fill="#444244"/>
<path d="M5.33633 134.724C5.4954 133.776 5.98701 129.867 6.56415 129.345C6.57317 129.337 6.58236 129.329 6.59169 129.321C6.92115 129.044 34.0884 129.102 36.8864 129.103L125.05 129.117L154.358 129.124L163.231 129.127C164.923 129.125 166.919 129.076 168.578 129.162C167.936 129.328 164.258 129.263 163.406 129.262L151.953 129.25C151.668 129.25 149.415 129.238 149.269 129.297C152.882 129.298 157.316 129.26 160.89 129.417C163.499 129.532 173.257 129.14 175.217 129.781L175.284 129.897C169.451 130.054 163.467 130.092 157.624 130.126C154.059 130.146 150.476 130.09 146.891 130.119C139.875 130.175 132.828 129.843 125.801 130.032C125.548 130.035 125.323 130.151 125.103 130.241C122.822 129.813 119.97 130.446 117.6 130.46C114.706 130.477 111.949 130.679 109.107 130.132C108.115 129.941 106.811 130.22 105.604 129.924C106.06 129.797 106.856 129.835 107.349 129.8C111.642 129.497 116.038 130.114 120.29 129.4C121.13 129.259 122.081 129.389 122.93 129.323L122.877 129.264C114.517 129.053 106.042 129.394 97.6685 129.256C97.2673 129.25 96.9897 129.393 96.5135 129.375C96.7059 129.511 96.9518 129.566 97.1794 129.631C97.0167 129.96 88.311 130.067 87.2251 130.1C86.8379 130.112 86.082 130.048 85.7363 130.168L86.1233 130.395L86.0872 130.496C85.9046 130.515 85.2886 130.431 84.8765 130.45C81.53 130.603 78.1332 130.199 74.7699 130.126C74.0978 130.112 73.2928 130.284 72.6504 130.272C71.1279 130.245 69.5929 130.142 68.0681 130.121L43.8263 129.661C43.1209 129.654 42.2605 129.969 41.8093 129.932C36.6146 129.512 31.456 129.99 26.2576 129.754C25.3473 129.713 24.3488 129.943 23.4313 129.921C22.4397 129.945 21.1953 129.807 20.162 129.79C17.7326 129.773 15.3029 129.804 12.8747 129.884C12.1666 129.907 10.4564 129.919 9.82593 130.048C9.93374 130.218 10.1374 130.25 10.3562 130.335C10.0224 130.708 9.34296 130.314 9.05518 130.601C8.8583 130.798 9.11548 130.877 8.72161 130.941C8.44645 130.715 7.9458 130.124 7.66821 130.089C7.08298 130.467 7.0647 133.137 7.16756 133.772L7.28597 133.849C7.5215 133.668 7.64571 133.565 7.86072 133.354L8.03229 133.412L8.1278 133.765C8.31963 133.824 8.38797 133.838 8.54675 133.965L8.55975 134.202C8.33037 134.369 8.39726 134.335 8.121 134.351C7.62624 134.379 7.84871 135.173 7.43774 135.575L7.06782 135.429C6.51061 134.89 7.09264 134.433 6.87365 133.887C6.64904 133.827 6.5762 133.826 6.35087 133.882C6.36696 134.229 6.38498 134.54 6.27515 134.876C6.25938 134.924 6.16665 134.952 6.12048 134.975C5.92769 134.779 5.59654 134.766 5.33633 134.724Z" fill="#15C653"/>
<path d="M361.433 129.328C361.585 129.364 361.92 129.418 362.001 129.527C361.887 129.612 361.798 129.64 361.776 129.787C361.642 130.663 362.018 131.491 362.092 132.363C362.169 133.252 361.986 134.383 362.233 135.222C362.444 135.297 362.699 135.228 362.915 135.193L362.655 136.402C362.714 136.761 362.827 137.174 362.785 137.538C362.71 138.203 361.764 140.377 362.354 140.801C363.127 141.356 365.032 141.139 366 141.136V143.277C364.814 143.321 362.55 143.047 361.713 143.945C361.221 144.472 361.115 145.229 360.997 145.915C360.971 145.622 360.947 145.323 360.948 145.028C360.951 144.489 361.103 143.542 361.502 143.146C361.33 143.132 361.206 142.957 361.092 142.839C360.74 142.986 360.273 143.191 359.889 143.193L359.682 143.092C359.252 143.163 358.696 143.04 358.258 142.996C358.137 142.81 358.205 142.471 358.237 142.26C358.3 141.841 358.763 141.753 359.071 141.522C360.098 140.753 359.506 137.601 359.694 136.287L359.873 136.231L360.381 136.562L360.49 136.481C360.396 135.254 360.411 133.716 360.008 132.562L359.729 132.433C359.432 132.524 359.408 132.546 359.219 132.794C358.225 132.319 357.102 132.547 355.966 132.517C355.044 132.349 353.975 132.417 353.033 132.406C352.79 132.66 352.743 133.72 352.604 134.127L352.445 134.159C352.164 133.775 352.5 133.318 352.2 132.892C351.845 132.388 350.943 131.892 350.344 131.788C349.511 131.644 348.604 131.733 347.758 131.69C346.306 131.615 343.608 131.223 342.236 131.521C342.062 131.559 341.849 131.804 341.696 131.91C340.936 132.434 340.399 131.561 339.719 131.519C339.255 131.49 337.655 131.962 337.534 131.929C337.359 131.883 337.268 131.637 337.037 131.599C336.043 131.44 335.554 132.326 334.878 132.787C334.145 133.288 334.186 132.639 333.637 132.538C333.272 132.872 333.38 133.489 333.266 133.981L333.134 133.964C332.814 133.364 332.793 132.432 332.707 131.753C331.77 131.382 330.552 132.158 329.605 131.869C329.36 131.794 329.241 131.512 329.013 131.415C328.433 131.169 327.643 131.948 327.049 131.998C326.006 132.085 323.139 130.97 322.271 131.468C322.159 131.532 322.152 131.706 322 131.767C321.614 131.919 320.963 131.559 320.527 131.631C320.493 131.636 320.46 131.642 320.426 131.649C320.09 131.725 320.242 132.127 320.107 132.342C318.429 132.314 316.744 132.339 315.091 132.677C314.744 132.748 314.558 133.15 314.25 133.158C314.2 132.951 314.147 132.781 314.035 132.6L313.99 132.602C313.806 132.613 313.521 132.655 313.35 132.586C313.042 132.462 312.784 132.058 312.47 131.885C312.276 131.777 312.039 131.856 311.868 131.705C312.105 131.462 312.481 131.209 312.502 130.872C312.468 130.836 312.43 130.803 312.39 130.773C312.215 130.646 311.73 130.553 311.516 130.591C311.556 130.784 311.529 130.856 311.47 131.042C311.338 130.881 311.246 130.736 311.166 130.542L311.348 130.424C310.01 130.096 308.497 130.406 307.126 130.419C305.505 130.433 303.872 130.46 302.252 130.415C301.427 130.392 300.609 130.291 299.783 130.283C299.186 130.278 298.622 130.425 298.04 130.415L297.99 130.288L298.303 130.261L298.392 130.121C302.342 130.069 306.297 130.124 310.249 130.105C312.512 130.094 314.657 129.814 316.911 130.219C317.229 130.146 317.56 129.891 317.905 129.93C322.171 130.412 326.396 129.805 330.707 130.488C331.113 130.552 331.983 130.045 332.488 130.036C334.461 130.003 336.417 130.145 338.386 130.237C338.63 130.265 339.937 129.774 340.083 129.859C341.217 130.543 341.944 129.887 343.095 129.775C344.225 129.665 345.581 129.804 346.724 129.789C347.372 129.78 347.811 130.588 348.277 130.585C349.492 130.577 350.717 129.996 351.872 129.684C353.228 129.704 360.693 129.881 361.433 129.328ZM362.593 136.521C362.397 136.631 362.069 137.173 361.969 137.169C361.954 136.893 361.866 136.417 361.653 136.222C361.619 136.191 361.584 136.163 361.546 136.138C361.292 136.163 361.103 136.277 360.943 136.488C360.882 136.569 360.85 136.675 360.83 136.773C360.915 137.034 361.173 137.21 361.241 137.409C361.299 137.584 361.112 138.118 361.085 138.321C361.026 138.746 361.185 139.476 361.013 139.839L360.587 140.011C360.539 140.238 361.657 141.892 361.629 143.07C361.743 142.868 361.863 142.613 361.9 142.385C362.023 141.635 361.947 140.835 362.041 140.074C362.192 138.867 362.59 137.751 362.593 136.521Z" fill="#07CF5D"/>
<path d="M361.629 143.07C361.657 141.892 360.538 140.238 360.587 140.011L361.012 139.839C361.185 139.476 361.026 138.746 361.085 138.321C361.112 138.118 361.299 137.584 361.241 137.409C361.173 137.21 360.915 137.034 360.83 136.773C360.85 136.675 360.882 136.569 360.943 136.488C361.103 136.277 361.292 136.163 361.546 136.138C361.584 136.163 361.619 136.191 361.653 136.222C361.866 136.417 361.954 136.893 361.969 137.169C362.069 137.172 362.397 136.631 362.593 136.521C362.59 137.751 362.192 138.867 362.041 140.074C361.947 140.835 362.023 141.635 361.9 142.385C361.863 142.613 361.743 142.868 361.629 143.07Z" fill="#07CF5D" fill-opacity="0.964706"/>
<path d="M362.593 136.52L362.655 136.401C362.714 136.761 362.827 137.174 362.785 137.537C362.71 138.202 361.764 140.377 362.354 140.8C363.127 141.355 365.032 141.138 366 141.135V143.276C364.814 143.32 362.55 143.046 361.713 143.945C361.221 144.471 361.115 145.228 360.997 145.915C360.971 145.621 360.947 145.323 360.948 145.028C360.951 144.489 361.103 143.541 361.502 143.145L361.629 143.069C361.743 142.867 361.863 142.613 361.9 142.384C362.023 141.634 361.947 140.835 362.041 140.074C362.192 138.866 362.59 137.751 362.593 136.52Z" fill="#444244"/>
<path d="M359.682 143.092C359.661 143.055 359.641 143.018 359.624 142.979C359.508 142.726 359.38 142.44 359.474 142.18C359.935 142.134 360.227 142.695 360.772 142.58L360.799 142.574L361.092 142.839C360.741 142.986 360.273 143.191 359.889 143.193L359.682 143.092Z" fill="#0DD455"/>
<path d="M297.209 129.135L342.721 129.122L355.166 129.126C356.295 129.13 360.595 129.107 361.433 129.329C360.693 129.882 353.228 129.704 351.872 129.685C350.717 129.997 349.492 130.578 348.276 130.585C347.811 130.588 347.372 129.781 346.724 129.789C345.581 129.804 344.225 129.666 343.095 129.775C341.944 129.887 341.217 130.543 340.083 129.86C339.937 129.775 338.63 130.265 338.385 130.237C336.417 130.146 334.461 130.003 332.488 130.037C331.983 130.046 331.113 130.553 330.707 130.489C326.396 129.805 322.171 130.413 317.905 129.931C317.56 129.892 317.229 130.146 316.91 130.219C314.657 129.815 312.512 130.094 310.249 130.105C306.297 130.124 302.342 130.069 298.392 130.121C297.978 130.04 297.812 130.307 297.11 130.306L297.273 130.109C296.553 130.099 295.794 130.078 295.077 130.122C294.805 130.139 294.162 130.558 293.839 130.335C293.942 130.186 293.984 130.14 293.968 129.955C291.896 129.828 291.799 129.974 289.771 130.338C289.614 129.917 289.438 129.946 289.058 130.051C288.786 130.126 288.255 130.326 287.994 130.312C285.334 130.176 282.675 130.309 280.017 130.124C279.374 130.079 278.699 130.058 278.068 130.203C278.015 130.204 277.783 130.272 277.752 130.259C277.343 130.097 275.225 130.107 274.942 130.329C275.135 130.535 275.654 130.505 275.991 130.527C275.599 130.554 274.067 130.301 273.574 130.231C272.384 130.064 267.828 130.828 267.214 130.375C267.359 130.18 267.52 130.202 267.805 130.135C266.483 130.167 265.183 130.206 263.874 130.387C263.541 130.433 263.436 130.118 263.357 130.119C261.57 130.124 259.788 130.233 257.998 130.197C256.685 130.163 256.022 130.339 254.78 130.496C254.7 130.415 254.62 130.334 254.542 130.252C252.001 130.096 249.336 130.188 246.786 130.078C246.312 130.065 245.728 130.361 245.27 130.355C244.446 130.343 243.561 130.084 242.735 130.081C241.402 130.076 240.04 130.313 238.712 130.2C238.478 130.18 238.317 129.967 238.214 129.787C238.612 129.226 241.233 129.451 241.984 129.443L251.764 129.437L285.01 129.257C286.254 129.258 296.856 129.346 297.209 129.135Z" fill="#15C653"/>
<path d="M291.61 137.231C291.138 137.417 291.064 137.807 290.668 137.982L290.056 137.659C290.101 137.27 290.306 137.421 290.48 137.121C290.782 136.601 290.395 136.147 290.266 135.651C290.236 135.538 290.206 135.417 290.235 135.303C290.381 134.728 290.72 134.238 290.922 133.684C291.086 133.234 291.087 132.756 291.336 132.336L291.463 132.356L291.622 132.836C291.781 132.944 291.926 132.995 292.11 133.044C292.102 133.285 292.114 133.501 292.157 133.739C291.988 134.906 291.793 136.067 291.61 137.231Z" fill="#15C653"/>
<path d="M59.5349 132.553C60.5972 132.555 61.8051 132.428 62.8476 132.62C63.1469 132.675 63.3859 132.724 63.561 132.978C63.5502 133.008 63.537 133.035 63.5228 133.063C63.3552 133.39 62.7834 133.482 62.575 133.796C62.5524 133.83 62.5306 133.864 62.5115 133.9C63.259 134.664 66.8979 134.057 68.0962 134.331C68.134 134.34 68.1835 134.444 68.2062 134.481C67.7975 134.972 65.0115 134.442 64.2423 134.795L64.2196 134.805C63.595 134.882 63.2905 135.335 62.6579 135.398C62.5352 135.525 62.4681 135.64 62.3988 135.801C62.0796 135.919 61.746 135.939 61.4085 135.948C60.8693 135.962 59.0026 136.045 58.6698 135.729C58.6574 135.287 58.9137 135.271 59.117 134.904C58.91 134.458 58.1742 134.773 57.7526 134.463L57.8068 134.345C58.6005 134.133 59.4735 134.394 60.2858 134.233C60.4936 134.065 60.51 134.037 60.5613 133.774L60.3938 133.559C59.9428 133.35 59.4048 133.363 58.9161 133.336L58.9155 133.255L59.3734 133.237L59.4932 133.105C59.4484 132.902 59.4831 132.751 59.5349 132.553Z" fill="#15C653"/>
<path d="M37.6662 132.399C38.2921 132.334 38.7084 132.702 39.3064 132.696C39.6599 132.692 39.8095 132.337 40.3171 132.393C40.5681 132.66 40.3956 132.935 40.5292 133.266L40.9473 133.427C41.0319 133.701 41.0604 133.886 41.0132 134.175C40.826 134.289 40.6314 134.369 40.4285 134.45C40.5105 134.559 40.5566 134.654 40.602 134.781C40.5766 134.811 40.5506 134.842 40.5239 134.871C40.4177 134.989 40.3178 135.087 40.1625 135.132C39.6364 135.283 36.7048 135.356 35.9361 135.395C34.84 135.386 33.7505 135.393 32.6549 135.413C32.3275 135.419 32.1396 135.399 31.9039 135.172L31.9238 134.969C32.6679 134.397 34.7914 134.817 35.7777 134.658C36.2636 134.579 36.5459 134.298 36.9718 134.176C37.191 134.114 37.3673 134.188 37.5934 134.08C37.7573 133.609 37.667 132.901 37.6662 132.399Z" fill="#15C653"/>
<path d="M52.8406 134.904C52.4884 134.885 52.6078 135.037 52.3571 135.22C52.2155 135.323 52.116 135.274 51.9524 135.25C51.8615 135.044 51.9567 134.905 52.026 134.7C51.3793 134.547 49.6186 134.876 49.2384 134.65C49.1322 134.587 49.1334 134.531 49.095 134.417C49.3795 134.185 49.7475 134.408 49.9956 134.166C50.0752 133.905 50.1219 133.858 50.0065 133.615C49.6542 133.429 49.2089 133.493 48.821 133.488C48.5142 133.485 48.3179 133.477 48.1015 133.256L48.1555 132.979C48.7612 132.6 51.0808 132.403 51.8355 132.434C52.0175 132.593 52.0629 132.655 52.1451 132.882C52.0059 133.278 51.3112 133.318 51.0637 133.635C50.938 133.795 50.983 133.908 51.0049 134.097C51.3241 134.478 52.2282 134.135 52.7074 134.312C52.9045 134.384 52.9527 134.607 53.0386 134.79C53.2891 134.693 57.2504 134.784 57.6038 134.917L57.6207 135.035C56.9744 135.391 53.8331 135.524 53.1224 135.303C53.0547 135.283 52.9867 135.242 52.9298 135.2L52.8406 134.904Z" fill="#15C653"/>
<path d="M111.323 132.958C111.354 132.945 111.384 132.933 111.415 132.923C111.754 132.814 112.577 132.907 112.897 133.068C113.106 133.379 113.047 133.738 113.065 134.108C113.286 134.35 113.524 134.317 113.842 134.36C114.026 134.579 114.091 134.627 114.101 134.919C114.075 134.943 114.047 134.963 114.019 134.984C113.569 135.306 112.737 135.155 112.247 135.461C112.024 135.601 112.027 135.891 111.976 136.132L111.918 136.148C111.738 136.05 111.503 136.058 111.301 136.047C111.208 135.879 111.184 135.716 111.156 135.528C110.882 135.309 110.53 135.324 110.185 135.271L110.111 135.115C110.338 134.441 110.632 134.694 111.146 134.422C111.21 134.233 111.197 133.951 111.119 133.764C110.997 133.468 110.75 133.406 110.484 133.291L110.535 133.183C110.796 133.103 111.06 133.028 111.323 132.958Z" fill="#15C653"/>
<path d="M44.5833 132.625C44.8207 132.593 45.0216 132.668 45.2517 132.713C46.5263 132.961 45.8258 133.467 46.2849 134.028C46.3764 134.14 46.7678 134.306 46.9103 134.395C46.9235 134.464 46.9291 134.533 46.9218 134.603C46.8833 134.973 46.4118 135.437 46.1388 135.657C45.6404 136.06 45.0493 135.871 44.456 135.807L44.4186 135.718C44.9539 135.665 45.5242 135.852 45.9991 135.708L46.0749 135.559C45.8124 135.371 45.5947 135.406 45.2779 135.39C44.4858 135.482 43.5366 135.424 42.7486 135.286C42.5343 135.248 42.4871 135.24 42.3631 135.064C42.7312 134.353 43.6771 135.066 44.1925 134.718C44.3229 134.63 44.3372 134.255 44.5696 134.167C44.8313 134.067 44.9558 134.233 45.2362 134.02C45.2621 133.806 45.2789 133.733 45.1917 133.537C45.1489 133.518 45.1057 133.503 45.0615 133.488C44.6007 133.333 43.9877 133.594 43.5621 133.411C43.5216 133.394 43.4824 133.376 43.4439 133.355L43.3884 133.145C43.6858 132.827 44.1849 132.943 44.5833 132.625Z" fill="#15C653"/>
<path d="M286.807 132.395C286.968 132.394 287.129 132.397 287.29 132.403C288.209 132.441 287.307 133.692 288.121 134.574C288.157 134.793 288.2 134.991 288.118 135.206C287.791 135.441 286.767 135.302 286.32 135.293C285.865 135.292 285.149 135.414 284.758 135.176C284.663 134.956 284.701 134.78 284.744 134.551C284.973 134.294 285.282 134.341 285.616 134.284C285.812 134.03 285.746 133.818 285.74 133.504C285.994 133.014 286.322 133.435 286.693 133.272C286.856 132.976 286.828 132.719 286.807 132.395Z" fill="#0DD455"/>
<path d="M285.321 136.2C285.788 136.245 285.886 136.405 286.215 136.725C286.516 137.018 286.758 137.156 286.764 137.583C286.658 137.772 286.634 137.851 286.442 137.96C286.822 138.19 287.485 137.928 287.91 137.953C288.174 137.969 288.266 138.055 288.43 138.243C288.422 138.501 288.404 138.537 288.242 138.737L287.991 138.753C286.756 139.695 286.745 138.435 285.632 138.584C285.532 138.598 285.482 138.586 285.396 138.535C285.103 138.361 285.582 137.671 285.506 137.394C285.504 137.389 285.503 137.384 285.501 137.379C285.457 137.222 285.22 137.095 285.087 136.995C285.048 136.674 285.187 136.489 285.321 136.2Z" fill="#16D355" fill-opacity="0.984314"/>
<path d="M129.383 134.651L129.832 134.56C130.21 134.701 130.069 135.052 130.39 135.165C130.748 135.291 130.89 135.154 131.26 135.404L131.284 135.59C131.233 135.663 131.171 135.731 131.097 135.783C130.722 136.045 129.996 136.054 129.56 135.985C128.996 135.896 128.476 135.778 128.139 135.317C127.321 135.326 126.407 135.413 125.604 135.266L125.487 135.094L125.546 134.885C125.573 134.866 125.599 134.85 125.628 134.835C125.955 134.658 127.205 134.942 127.656 134.945C128.148 134.949 129.018 135.012 129.383 134.651Z" fill="#15C653"/>
<path d="M9.03887 132.381C9.1155 132.376 9.19229 132.375 9.26904 132.377C9.73831 132.386 10.5944 132.788 10.9171 133.123L10.9009 133.314C10.6579 133.541 10.3263 133.506 10.0148 133.51C10.0176 133.683 10.0373 133.914 9.98334 134.078C9.89484 134.346 9.75492 134.384 9.52003 134.503C9.43617 134.463 9.34744 134.414 9.28478 134.345C8.84768 133.858 8.99945 132.976 9.03887 132.381Z" fill="#15C653"/>
<path d="M17.6528 131.309C17.9067 131.303 18.1031 131.305 18.3416 131.409C18.5015 131.577 18.6646 131.728 18.716 131.962C18.7415 132.078 18.6592 132.154 18.5976 132.251C18.0828 132.595 17.0408 132.43 16.4346 132.416C16.1669 132.423 15.86 132.467 15.6393 132.288L15.619 132.072C15.7025 131.945 15.7367 131.854 15.8824 131.795C16.2981 131.625 16.9823 131.803 17.4573 131.713L17.6528 131.309Z" fill="#15C653"/>
<path d="M56.0476 132.655C56.089 132.652 56.1305 132.649 56.1719 132.646C56.7846 132.61 58.0251 132.774 58.4959 133.194L58.4173 133.346C58.2282 133.39 58.0508 133.406 57.8571 133.412C57.1335 133.456 55.3917 133.666 54.814 133.233L54.8252 133.049C55.1629 132.762 55.6243 132.839 56.0476 132.655Z" fill="#15C653"/>
<path d="M81.5755 134.284C82.0697 134.274 82.8906 134.112 83.3129 134.368C83.5499 134.69 83.4971 134.91 83.5068 135.302C82.9895 135.329 82.175 135.48 81.7158 135.222C81.4724 134.909 81.559 134.672 81.5755 134.284Z" fill="#15C653"/>
<path d="M262.9 133.34C263.436 133.34 264.241 133.187 264.698 133.455C264.892 133.772 264.853 133.993 264.859 134.358C264.333 134.365 263.52 134.508 263.066 134.25C262.852 133.926 262.901 133.723 262.9 133.34Z" fill="#0DD455"/>
<path d="M240.844 132.235C241.149 132.228 241.537 132.195 241.833 132.262C242.109 132.324 242.229 132.4 242.381 132.633C242.285 132.917 242.196 132.993 241.983 133.189C241.692 133.196 241.397 133.206 241.105 133.192C240.809 133.177 240.644 133.12 240.447 132.903C240.507 132.574 240.627 132.48 240.844 132.235Z" fill="#0DD455"/>
<path d="M75.8293 134.734C76.2944 134.731 76.8203 134.705 77.2683 134.84C77.6298 134.949 78.4874 135.33 78.668 135.676C78.6837 135.706 78.6074 135.896 78.5931 135.94C77.6683 135.876 78.098 135.66 77.5947 135.415C77.0963 135.173 76.2256 135.557 75.8208 135.197L75.8293 134.734Z" fill="#15C653"/>
<path d="M300.976 132.178C301.481 132.288 301.951 132.351 302.258 132.811C302.322 133.169 302.321 133.271 302.182 133.611C301.868 133.499 301.54 133.497 301.24 133.394C300.984 133.305 300.913 133.208 300.803 132.974C300.829 132.687 300.858 132.445 300.976 132.178Z" fill="#0DD455"/>
<path d="M88.3667 132.866C89.004 132.877 90.3318 132.67 90.8732 132.963C91.042 133.055 91.0436 133.227 91.0929 133.402C90.3265 133.408 89.0648 133.548 88.3975 133.169L88.3667 132.866Z" fill="#15C653"/>
<path d="M34.015 132.622C34.1074 132.618 34.2015 132.62 34.2929 132.635C34.6674 132.696 35.4689 132.908 35.671 133.188L35.5652 133.453C35.1104 133.464 34.2016 133.599 33.8456 133.327C33.7492 133.012 33.8706 132.907 34.015 132.622Z" fill="#15C653"/>
<path d="M85.2997 135.245C85.8065 135.235 86.4053 135.165 86.9016 135.253C87.1089 135.29 87.1542 135.302 87.2737 135.472L87.2058 135.722C86.7676 135.884 86.0338 136.051 85.5887 135.877C85.3262 135.656 85.347 135.569 85.2997 135.245Z" fill="#15C653"/>
<path d="M28.4231 130.938C28.5199 130.931 28.6192 130.93 28.7155 130.943C28.9788 130.977 29.6559 131.054 29.8117 131.259C29.5709 131.523 29.154 131.512 28.8076 131.558C28.4331 131.618 27.6479 131.577 27.3428 131.358C27.5987 131.097 28.0677 131.045 28.4231 130.938Z" fill="#15C653"/>
<path d="M240.901 134.919C240.965 134.919 241.028 134.922 241.091 134.928C241.369 134.959 241.758 134.942 241.932 135.159L241.41 135.435L241.496 135.709C241.48 135.736 241.463 135.759 241.443 135.783C241.305 135.957 240.819 136.074 240.601 136.149L240.537 136.176C240.444 135.997 240.267 136.043 240.173 135.857C240.375 135.81 240.56 135.726 240.748 135.645C240.844 135.445 240.848 135.412 240.802 135.197L240.521 135.114L240.901 134.919Z" fill="#07CF5D"/>
<path d="M89.1848 130.791C89.2674 130.776 89.3507 130.765 89.4343 130.758C89.8744 130.723 90.863 130.902 91.1877 131.18L91.1725 131.485C90.7027 131.507 89.7145 131.517 89.3369 131.227C89.183 131.11 89.2065 130.971 89.1848 130.791Z" fill="#15C653"/>
<path d="M67.1581 132.375C67.4749 132.362 67.7781 132.332 68.0774 132.458C68.2487 132.77 68.2038 133.03 68.2044 133.382C67.8952 133.393 67.6192 133.396 67.3154 133.324C67.11 133.016 67.1652 132.74 67.1581 132.375Z" fill="#15C653"/>
<path d="M26.0778 134.266C26.2888 134.255 26.5629 134.217 26.7683 134.259C26.8826 134.283 26.9961 134.339 27.0594 134.439L27.0682 134.453C27.2 134.66 27.1449 135.079 27.1407 135.322C26.8307 135.323 26.5182 135.352 26.2481 135.175C26.0553 134.929 26.0879 134.565 26.0778 134.266Z" fill="#15C653"/>
<path d="M100.728 132.472C100.951 132.262 101.3 132.271 101.512 132.492C101.723 132.712 101.717 133.062 101.498 133.275C101.276 133.491 100.922 133.485 100.708 133.261C100.494 133.038 100.503 132.684 100.728 132.472Z" fill="#15C653"/>
<path d="M172.236 134.836C172.81 134.83 173.578 134.637 174.054 135.003L174.094 135.326C173.657 135.36 172.759 135.52 172.391 135.271C172.252 135.177 172.264 134.992 172.236 134.836Z" fill="#15C653"/>
<path d="M98.8503 132.978C98.9388 132.936 99.0336 132.896 99.1326 132.893C99.3912 132.883 99.4312 132.902 99.6109 133.071L99.5554 133.294C99.2131 133.501 98.9867 133.461 98.5926 133.468C98.4662 133.474 98.3393 133.478 98.2155 133.448C98.0134 133.4 97.9577 133.402 97.8488 133.226C98.1947 132.989 98.4374 133.014 98.8503 132.978Z" fill="#15C653"/>
<path d="M21.2323 135.334C21.5599 135.31 21.9068 135.254 22.2187 135.381C22.3977 135.685 22.3507 135.891 22.344 136.237C22.12 136.233 21.8756 136.167 21.6539 136.128C21.3569 135.864 21.3436 135.707 21.2323 135.334Z" fill="#15C653"/>
<path d="M301.541 134.134C301.595 134.132 301.649 134.132 301.702 134.142C301.956 134.188 302.006 134.205 302.145 134.412C302.147 134.779 302.058 135.123 301.977 135.478C301.73 135.332 301.537 135.193 301.443 134.906C301.345 134.605 301.405 134.404 301.541 134.134Z" fill="#0DD455"/>
<path d="M288.741 139.154C289.01 139.791 288.998 140.255 288.769 140.898C288.67 140.769 288.551 140.623 288.491 140.471C288.318 140.036 288.567 139.549 288.741 139.154Z" fill="#0DD455"/>
<path d="M23.2974 135.248L24.0273 135.253C24.307 135.442 24.3069 135.563 24.406 135.874C24.108 135.882 23.8157 135.884 23.5181 135.864C23.2953 135.652 23.3244 135.542 23.2974 135.248Z" fill="#15C653"/>
<path d="M311.47 131.041C311.529 130.856 311.556 130.783 311.516 130.59C311.73 130.552 312.215 130.645 312.39 130.772C312.43 130.802 312.468 130.835 312.502 130.872C312.481 131.209 312.105 131.462 311.868 131.704C312.039 131.856 312.276 131.776 312.47 131.884C312.784 132.058 313.042 132.461 313.35 132.586C313.521 132.655 313.806 132.613 313.99 132.602L314.035 132.599C314.147 132.781 314.2 132.951 314.25 133.157C314.558 133.15 314.744 132.748 315.091 132.677C316.744 132.339 318.429 132.314 320.107 132.342C320.242 132.126 320.09 131.725 320.426 131.648C320.46 131.641 320.493 131.636 320.527 131.63C320.963 131.558 321.614 131.918 322 131.766C322.152 131.705 322.159 131.531 322.271 131.467C323.139 130.97 326.005 132.084 327.049 131.997C327.643 131.947 328.433 131.168 329.013 131.415C329.241 131.512 329.36 131.793 329.605 131.868C330.552 132.157 331.77 131.381 332.707 131.752C332.793 132.431 332.813 133.363 333.134 133.963L333.266 133.98C333.38 133.488 333.272 132.871 333.637 132.537C334.185 132.638 334.145 133.288 334.878 132.786C335.554 132.325 336.043 131.439 337.037 131.599C337.267 131.636 337.359 131.882 337.534 131.929C337.655 131.961 339.255 131.489 339.719 131.518C340.399 131.561 340.936 132.433 341.696 131.909C341.849 131.803 342.062 131.558 342.236 131.52C343.608 131.222 346.306 131.615 347.758 131.689C348.604 131.732 349.511 131.644 350.344 131.788C350.943 131.891 351.845 132.387 352.2 132.891C352.5 133.318 352.164 133.775 352.445 134.158L352.604 134.126C352.743 133.719 352.79 132.659 353.033 132.405C353.975 132.416 355.044 132.349 355.966 132.517C355.47 132.596 354.704 132.642 354.384 133.091C354.046 133.565 353.48 137.506 353.285 138.397C353.056 139.447 352.688 140.464 352.485 141.521C352.372 142.105 352.124 143.105 352.225 143.68C352.26 143.875 352.394 143.963 352.55 144.066C353.383 144.611 355.698 144.263 356.646 144.057C356.825 144.018 356.951 143.978 357.068 143.826C357.524 142.29 359.493 133.688 359.219 132.793C359.408 132.545 359.432 132.523 359.729 132.432L360.008 132.561C360.411 133.716 360.396 135.254 360.49 136.48L360.381 136.561L359.873 136.231L359.694 136.286C359.506 137.601 360.097 140.752 359.071 141.521C358.763 141.752 358.3 141.84 358.237 142.26C358.205 142.47 358.137 142.81 358.258 142.995C358.419 143.472 358.29 143.954 358.342 144.447L358.439 144.462L358.722 144.23L358.899 144.263C359.092 144.571 359.228 144.938 359.581 145.046C359.854 144.857 359.75 144.426 360.042 144.445L360.122 144.651C360.022 144.146 359.481 143.938 359.521 143.514C359.637 143.393 359.745 143.28 359.889 143.192C360.273 143.19 360.74 142.985 361.092 142.838C361.206 142.956 361.33 143.131 361.502 143.145C361.103 143.541 360.951 144.489 360.948 145.028C360.947 145.323 360.971 145.621 360.997 145.915C360.766 146.365 360.617 146.863 360.452 147.342C360.061 147.502 359.665 147.661 359.239 147.696C357.589 147.832 355.8 147.642 354.134 147.63C350.907 147.607 347.678 147.66 344.451 147.666C343.421 147.668 342.052 147.502 341.066 147.69C340.059 147.606 339.007 147.683 337.997 147.689L332.304 147.712L315.671 147.711C312.932 147.694 310.177 147.778 307.441 147.62C311.692 147.523 315.924 147.135 320.173 146.958C321.606 146.898 323.05 146.983 324.486 146.955L333.843 146.695C333.921 146.707 333.999 146.718 334.078 146.728C335.046 146.851 336.074 146.674 337.052 146.659C338.747 146.631 340.451 146.677 342.147 146.69C342.58 146.693 344.625 146.846 344.91 146.717C344.979 146.686 345.066 146.596 345.129 146.548C345.985 147.001 346.648 147.032 347.596 147.013C349.284 147.117 350.98 147.115 352.67 147.098C353.068 147.094 353.472 146.996 353.868 147.006C353.969 146.959 354.09 146.768 354.185 146.689C354.592 146.696 354.618 146.887 354.933 147.022C355.131 147.107 355.282 146.998 355.462 146.919L355.506 146.778L355.062 146.545C355.094 146.235 356.054 145.802 356.257 145.38L356.198 145.225C355.586 144.925 354.468 145.541 353.418 145.241C351.666 145.604 352.563 144.635 351.767 144.175C351.567 144.06 351.148 144.053 350.927 144.113C350.785 144.153 350.686 144.194 350.611 144.322C350.39 144.703 350.659 145.258 350.426 145.624C350.196 145.406 350.13 144.521 349.976 144.168C349.945 144.151 349.84 144.078 349.812 144.078C349.703 144.076 348.592 144.967 348.252 145.06C347.975 145.137 347.562 145.051 347.272 145.033C344.24 144.844 341.183 145.298 338.154 145.288C337.398 145.285 336.65 145.159 335.89 145.164C335.597 145.165 335.173 145.322 334.936 145.296C334.513 145.249 334.523 144.883 333.989 144.919C333.92 144.874 333.76 144.737 333.69 144.722C333.227 144.625 331.649 144.836 331.11 144.946C330.88 144.993 330.678 145.013 330.546 145.222C330.473 145.337 330.438 145.501 330.4 145.632L330.214 145.646L330.14 145.178C329.808 145.03 329.289 145.168 328.916 145.204C327.988 145.294 324.612 145.26 324.142 145.441C324.076 145.467 324.023 145.508 323.968 145.552C323.94 145.576 323.911 145.598 323.883 145.625C322.797 145.656 321.702 145.394 320.647 145.442C320.15 145.464 319.629 145.84 319.145 145.783C318.996 145.765 318.931 145.718 318.834 145.601C318.683 145.418 318.722 145.377 318.463 145.347C317.288 145.215 316.102 145.213 314.926 145.342C314.527 145.382 313.559 145.6 313.214 145.497C313.159 145.481 313.069 145.402 313.018 145.368L312.864 145.028C312.832 145.019 312.8 145.013 312.767 145.007C312.41 144.938 312.085 145.143 311.718 144.987C311.741 144.798 311.812 144.636 311.887 144.462C311.718 144.342 311.585 144.337 311.376 144.38C311.298 144.395 311.22 144.44 311.156 144.482C311.316 144.996 311.492 145.297 311.278 145.81L310.807 145.837C310.597 145.538 310.732 145.453 310.371 145.252C309.863 145.361 309.576 145.752 309.299 146.177C309.162 146.386 309.104 146.634 308.855 146.738C308.776 146.473 308.747 146.162 308.7 145.888C308.099 145.196 306.147 145.653 305.299 145.517C304.912 145.454 304.557 145.119 304.178 145.091C304.132 145.088 304.086 145.084 304.039 145.085L303.835 145.319C303.639 145.133 303.804 144.947 303.688 144.679C302.991 144.476 303.064 145.019 302.635 145.283C302.524 145.351 302.138 145.376 301.984 145.419L302.04 145.548L302.286 145.623C301.831 145.685 301.316 145.863 301.026 146.208C300.965 146.245 300.902 146.275 300.833 146.293C300.401 146.408 299.779 145.988 299.421 145.773L299.24 145.837C298.898 145.676 298.668 145.455 298.405 145.189C299.003 144.922 299.743 145.075 300.383 144.906L300.437 144.792C300.236 144.596 300.038 144.405 299.817 144.232C299.945 144.183 300.583 144.385 300.809 144.385C301.418 144.386 301.943 144.246 302.512 144.058C302.93 143.622 303.27 143.095 303.656 142.628C303.945 142.277 305.335 140.914 305.719 140.878C306.295 141.328 305.701 143.124 306.048 143.906C306.675 144.48 308.844 144.306 309.75 144.335C309.879 144.257 310.007 144.177 310.133 144.093C310.787 143.668 311.008 142.596 311.16 141.876C311.481 141.43 312.099 138.039 312.256 137.321C312.391 136.697 313.093 133.336 312.831 132.929C312.011 132.406 310.234 132.437 309.292 132.576C309.362 132.515 309.444 132.447 309.539 132.437C309.593 132.432 309.65 132.429 309.704 132.417C309.778 132.401 311.443 131.085 311.47 131.041ZM357.762 146.621L357.791 146.313C358.239 146.064 358.87 146.411 359.026 146.152L358.936 145.999C358.606 145.959 358.001 145.747 357.716 145.613C357.292 145.727 356.71 145.901 356.483 146.303C356.446 146.367 356.47 146.49 356.474 146.566C356.648 146.703 356.872 146.843 357.104 146.81C357.311 146.781 357.497 146.664 357.702 146.631C357.722 146.627 357.741 146.624 357.762 146.621Z" fill="#15C653" fill-opacity="0.984314"/>
<path d="M316.179 132.813C316.337 132.68 316.498 132.619 316.701 132.602C318.87 132.423 321.135 132.637 323.312 132.632L328.498 132.625C329.411 132.62 330.335 132.539 331.246 132.615C331.725 132.655 332.088 132.781 332.411 133.157C332.806 133.617 332.732 134.458 332.681 135.025C332.586 136.083 332.229 137.091 331.998 138.122C331.702 139.446 331.33 142.915 330.344 143.738C329.95 144.066 329.328 144.308 328.823 144.37C327.442 144.541 325.827 144.318 324.422 144.319C321.394 144.32 317.561 144.549 314.615 144.263C314.183 144.221 313.868 144.101 313.585 143.76C313.232 143.334 313.381 142.433 313.437 141.912C313.576 140.638 313.973 139.424 314.22 138.172C314.31 137.714 314.26 137.231 314.365 136.784C314.449 136.429 314.661 136.109 314.74 135.754C314.852 135.248 314.78 134.753 314.966 134.248C315.123 133.822 315.459 133.347 315.814 133.064C315.911 132.987 316.028 132.913 316.145 132.87L316.179 132.813Z" fill="#3E4841"/>
<path d="M316.179 132.813C316.337 132.68 316.498 132.619 316.701 132.602C318.87 132.423 321.135 132.637 323.312 132.632L328.498 132.625C329.411 132.62 330.335 132.539 331.246 132.615C331.725 132.655 332.088 132.781 332.411 133.157C332.806 133.617 332.732 134.458 332.681 135.025C332.586 136.083 332.229 137.091 331.998 138.122C331.702 139.446 331.33 142.915 330.344 143.738C329.95 144.066 329.328 144.308 328.823 144.37C327.442 144.541 325.827 144.318 324.422 144.319C321.394 144.32 317.561 144.549 314.615 144.263C314.183 144.221 313.868 144.101 313.585 143.76C313.232 143.334 313.381 142.433 313.437 141.912C313.576 140.638 313.973 139.424 314.22 138.172C314.31 137.714 314.26 137.231 314.365 136.784C314.449 136.429 314.661 136.109 314.74 135.754C314.852 135.248 314.78 134.753 314.966 134.248C315.123 133.822 315.459 133.347 315.814 133.064C315.911 132.987 316.028 132.913 316.145 132.87L316.22 133.417C316.38 133.527 316.869 133.681 316.918 133.82C316.783 133.981 316.766 133.996 316.547 134.016C316.243 134.043 315.95 133.92 315.711 134.12C315.723 134.776 315.865 135.462 315.839 136.109C315.807 136.905 315.454 137.872 315.262 138.655C314.984 138.859 314.898 138.842 314.842 139.221C314.695 140.233 314.605 141.622 314.736 142.636C315.112 142.79 315.653 142.702 315.961 142.844C316.403 143.047 316.338 143.45 316.909 143.561C317.908 143.756 318.967 143.637 319.978 143.652C323.095 143.699 326.288 143.763 329.398 143.548L329.472 143.437L329.346 143.139C329.519 143.105 329.639 143.066 329.785 142.964C329.717 142.618 329.626 142.157 329.843 141.842C329.87 141.803 329.901 141.769 329.938 141.738C330.07 141.783 330.199 141.831 330.329 141.888C330.292 141.56 330.199 141.299 330.365 141.008L330.563 140.978L330.688 141.111C330.688 140.946 330.747 140.409 330.692 140.28C330.561 139.977 330.322 140.007 330.398 139.624C330.551 139.625 330.559 139.656 330.667 139.761C330.883 139.158 330.804 138.233 330.703 137.606L330.618 137.552C330.509 136.994 330.212 136.674 330.046 136.171C329.769 135.327 329.689 134.279 329.593 133.393C328.667 133.407 327.698 132.974 326.752 132.947C325.52 132.912 324.283 133.013 323.05 132.983C322.387 132.967 321.727 132.803 321.069 132.807C319.456 132.818 317.785 133.006 316.179 132.813Z" fill="#334939"/>
<path d="M329.593 133.393C330.166 133.44 331.049 133.564 331.434 134.017C331.709 134.341 331.762 134.748 331.725 135.16C331.661 135.888 331.123 137.003 330.703 137.606L330.618 137.552C330.509 136.994 330.212 136.674 330.046 136.171C329.769 135.327 329.689 134.279 329.593 133.393Z" fill="#3F413E"/>
<path d="M325.694 135.008C325.698 135.007 325.702 135.006 325.706 135.005C326.176 134.916 326.884 135.479 327.259 135.737C326.746 137.81 326.877 139.834 325.838 141.781C324.043 142.033 322.113 141.847 320.296 141.856C319.944 141.852 319.423 141.887 319.132 141.66C318.958 141.525 318.902 141.423 318.879 141.202C318.77 140.192 319.628 136.125 320.216 135.422C320.676 134.872 324.765 135.107 325.694 135.008Z" fill="#07CF5D"/>
<path d="M321.197 136.333C321.259 136.298 321.406 136.191 321.469 136.182C321.843 136.132 322.233 136.348 322.625 136.327C323.649 136.274 324.63 135.83 325.663 136.133C325.804 136.174 325.928 136.251 326.043 136.339C326.192 136.635 326.214 136.825 326.108 137.146C325.826 138.005 325.222 138.803 324.996 139.667C324.91 139.993 325.174 140.758 325.079 140.806C324.732 140.978 323.376 141.053 322.997 140.912C322.893 140.874 322.793 140.824 322.697 140.769L322.686 140.593C322.301 140.552 321.75 140.553 321.455 140.304C321.707 139.967 322.22 139.586 322.632 139.521C322.573 139.288 322.561 139.242 322.377 139.089C322.047 139.043 321.767 139.301 321.511 139.479C321.337 139.636 321.297 139.667 321.064 139.697C320.829 139.556 320.826 139.509 320.729 139.25C320.743 139.1 320.757 138.947 320.848 138.822C321.016 138.592 321.094 138.614 321.365 138.571C321.902 138.521 321.785 137.894 322.117 137.595C322.139 137.573 322.15 137.434 322.156 137.396L321.774 137.544C321.327 137.377 321.73 136.881 321.511 136.494L321.255 136.484L321.197 136.333Z" fill="#0DD455"/>
<path d="M322.632 139.52C322.743 139.9 322.733 140.201 322.685 140.592C322.301 140.551 321.75 140.552 321.455 140.303C321.707 139.967 322.22 139.585 322.632 139.52Z" fill="#0DD455"/>
<path d="M321.197 136.332C321.547 136.305 321.697 136.26 322.017 136.424C322.171 136.722 322.149 137.069 322.156 137.396L321.774 137.544C321.327 137.377 321.73 136.881 321.511 136.494L321.255 136.484L321.197 136.332Z" fill="#01C84C"/>
<path d="M321.511 139.478C321.337 139.635 321.297 139.667 321.064 139.696C320.829 139.556 320.826 139.508 320.729 139.249C320.743 139.099 320.757 138.946 320.848 138.821C321.016 138.592 321.094 138.613 321.365 138.57C321.334 138.872 321.254 139.162 321.459 139.416C321.476 139.437 321.494 139.458 321.511 139.478Z" fill="#01C84C"/>
<path d="M327.77 135.266C328.057 135.185 328.364 135.268 328.65 135.319C328.967 135.577 329.007 135.814 329.151 136.192L328.897 136.291C328.47 136.201 328.296 135.517 327.77 135.266Z" fill="#3F413E"/>
<path d="M334.669 144.213C334.285 144.127 333.742 144.213 333.432 143.923C333.21 143.716 333.121 143.459 333.114 143.157C333.098 142.432 333.551 141.537 333.706 140.808C333.872 140.029 333.866 139.227 334.007 138.444C334.105 137.903 335.293 133.079 335.352 133.019C335.369 133.002 335.385 132.985 335.403 132.97C335.988 132.46 345.123 132.531 346.394 132.587C348.235 132.597 350.08 132.213 351.753 133.163C351.984 135.102 351.559 136.926 350.585 138.621C350.847 140.234 350.526 142.35 349.545 143.707C349.231 144.141 348.958 144.177 348.444 144.258C347.494 144.408 335.005 144.389 334.669 144.213Z" fill="#454E45"/>
<path d="M334.669 144.213C334.285 144.126 333.742 144.212 333.432 143.923C333.21 143.716 333.121 143.458 333.114 143.157C333.098 142.432 333.551 141.537 333.706 140.808C333.872 140.029 333.866 139.226 334.007 138.444C334.105 137.903 335.293 133.079 335.352 133.018C335.369 133.002 335.385 132.985 335.403 132.969C335.988 132.459 345.123 132.531 346.394 132.587C345.943 133.091 342.555 133.239 341.754 133.284C340.497 133.355 339.229 133.277 337.97 133.294C336.957 134.624 336.147 133.529 335.982 135.814C336.059 136.277 336.43 137.819 336.162 138.191C335.753 138.759 335.1 138.346 334.842 139.261C334.605 140.102 334.853 142.32 334.061 142.784L333.792 142.779C333.739 142.989 333.72 143.118 333.8 143.323C334.039 143.466 334.071 143.488 334.178 143.743C334.41 143.82 334.564 143.821 334.69 144.044L334.669 144.213Z" fill="#334939"/>
<path d="M334.17 138.912C334.607 138.121 335.188 137.378 335.644 136.582L335.765 136.559L335.849 136.934C336.024 136.62 335.907 136.183 335.982 135.814C336.059 136.278 336.43 137.82 336.162 138.191C335.753 138.759 335.099 138.346 334.842 139.261C334.605 140.102 334.853 142.32 334.061 142.784L333.792 142.779C333.739 142.989 333.72 143.118 333.8 143.323C334.039 143.466 334.071 143.488 334.178 143.744C333.999 143.678 333.823 143.62 333.638 143.571C333.598 143.399 333.518 143.154 333.54 142.98C333.585 142.622 333.896 142.201 333.994 141.823C334.238 140.892 334.173 139.869 334.17 138.912Z" fill="#3F413E"/>
<path d="M345.69 140.791C345.624 139.955 345.581 139.122 345.918 138.328C346.416 137.157 347.378 137.016 347.068 135.524C346.958 134.996 346.752 134.443 346.47 133.984L346.333 133.932L346.286 134.261C345.996 134.071 345.772 133.898 345.559 133.621L345.565 133.431C346.354 133.01 349.614 132.886 350.506 133.16C350.729 133.228 350.938 133.738 351.036 133.935C351.35 134.554 351.38 135.038 351.161 135.699C350.904 136.478 350.439 137.237 350.245 138.024C349.784 139.89 350.676 139.634 349.42 142.053C349.3 142.286 349.36 142.524 349.187 142.738C349.276 143.07 349.272 143.372 349.263 143.713C348.192 143.728 347.012 143.888 346.038 143.38L345.898 143.125L345.878 143.052C345.711 143.061 345.592 143.021 345.439 142.963C345.662 142.828 345.83 142.687 346.006 142.494C346.004 142.155 345.64 142.11 345.488 141.786C345.504 141.443 345.574 141.374 345.767 141.104L345.69 140.791Z" fill="#3F413E"/>
<path d="M347.014 142.704C347.215 142.657 347.337 142.648 347.534 142.719C347.822 142.581 348.15 142.358 348.467 142.377C348.707 142.587 348.859 142.7 349.187 142.738C349.276 143.07 349.272 143.372 349.263 143.712C348.192 143.728 347.012 143.887 346.038 143.38L345.898 143.124L345.878 143.052C345.897 143.019 345.918 142.993 345.945 142.965C345.95 142.959 345.955 142.954 345.961 142.948C346.184 142.712 346.7 142.731 347.014 142.704Z" fill="#334939"/>
<path d="M347.014 142.705L347.264 142.895C347.088 143.107 346.893 143.162 346.619 143.189C346.371 143.213 346.133 143.217 345.898 143.125L345.878 143.052C345.897 143.02 345.918 142.993 345.945 142.965C345.95 142.96 345.955 142.954 345.961 142.948C346.184 142.713 346.7 142.731 347.014 142.705Z" fill="#3F413E"/>
<path d="M341.874 141.84C341.11 141.811 339.731 142.031 339.088 141.611C338.866 141.466 338.764 141.296 338.708 141.041C338.661 140.821 338.735 140.57 338.857 140.386C339.109 140.007 339.563 139.841 339.989 139.756C340.679 139.619 344.52 139.585 345.012 139.914C345.218 140.176 345.224 140.466 345.255 140.784L345.69 140.791L345.767 141.104C345.574 141.374 345.504 141.443 345.488 141.786C345.64 142.11 346.004 142.155 346.006 142.494C345.83 142.688 345.662 142.828 345.439 142.964C344.489 141.911 342.549 142.406 341.988 141.945C341.948 141.912 341.91 141.879 341.874 141.84Z" fill="#07CF5D"/>
<path d="M345.255 140.785L345.69 140.791L345.767 141.105C345.574 141.375 345.504 141.443 345.488 141.786C345.64 142.11 346.004 142.155 346.007 142.495C345.83 142.688 345.662 142.828 345.439 142.964C344.489 141.912 342.549 142.406 341.988 141.945C341.948 141.912 341.91 141.879 341.875 141.841C342.463 141.947 344.324 141.875 344.842 141.572C345.117 141.411 345.18 141.071 345.255 140.785Z" fill="#3E4841"/>
<path d="M341.263 135.105C342.419 135.106 344.229 134.856 345.304 135.094C345.6 135.16 345.922 135.391 346.085 135.65C346.235 135.89 346.293 136.165 346.225 136.443C346.158 136.712 345.925 137.036 345.683 137.179C345.416 137.339 345.158 137.205 344.876 137.135C343.418 137.132 341.807 137.417 340.376 137.122C340.076 137.06 339.824 136.983 339.647 136.713C339.581 136.35 339.518 135.929 339.641 135.571C339.688 135.43 339.757 135.316 339.89 135.249C340.275 135.055 340.81 135.315 341.242 135.114L341.263 135.105Z" fill="#07CF5D"/>
<path d="M351.414 137.229C351.711 137.221 352.187 137.152 352.419 137.334C353.345 139.536 352.188 138.483 351.815 139.869C351.748 140.243 351.7 140.555 351.433 140.842L351.299 140.741C351.07 139.641 351.301 138.342 351.414 137.229Z" fill="#07CF5D"/>
<path d="M357.716 145.614C358.001 145.748 358.606 145.96 358.936 146L359.026 146.154C358.87 146.412 358.239 146.065 357.791 146.314L357.762 146.623C357.741 146.625 357.722 146.629 357.702 146.632C357.497 146.665 357.311 146.783 357.104 146.812C356.872 146.844 356.648 146.705 356.473 146.568C356.47 146.491 356.446 146.369 356.483 146.304C356.71 145.902 357.292 145.728 357.716 145.614Z" fill="#07CF5D" fill-opacity="0.956863"/>
<path d="M313.082 136.455C313.299 135.892 313.305 134.853 313.38 134.217C313.551 134.204 313.668 134.115 313.805 134.022C313.808 134.026 313.811 134.03 313.815 134.033C314.019 134.268 313.967 134.766 313.943 135.059C313.911 135.46 313.96 136.043 313.652 136.305L313.082 136.455Z" fill="#07CF5D"/>
<path d="M332.165 141.361C332.188 141.383 332.21 141.407 332.229 141.432C332.432 141.696 332.418 142.279 332.373 142.599C332.314 143.025 332.204 143.258 331.858 143.519C331.848 143.5 331.838 143.481 331.829 143.462C331.61 142.987 331.991 141.846 332.165 141.361Z" fill="#15C653"/>
<path d="M313.082 136.455L313.652 136.305C313.545 136.664 313.523 137.031 313.252 137.309L313.114 137.226C313.062 136.957 313.063 136.726 313.082 136.455Z" fill="#15C653"/>
<path d="M355.966 132.517C357.102 132.547 358.225 132.319 359.219 132.794C359.493 133.688 357.524 142.291 357.068 143.826C356.951 143.979 356.825 144.018 356.646 144.057C355.698 144.263 353.383 144.611 352.55 144.066C352.394 143.964 352.26 143.875 352.225 143.68C352.124 143.105 352.372 142.106 352.485 141.521C352.688 140.464 353.056 139.447 353.285 138.397C353.48 137.506 354.046 133.566 354.384 133.091C354.704 132.642 355.47 132.596 355.966 132.517ZM356.452 140.446C356.325 140.526 356.085 140.522 355.933 140.537C355.617 140.308 355.635 139.94 355.572 139.567L355.409 139.484C355.191 139.61 355.201 140.134 355.024 140.393C354.76 140.552 354.554 140.506 354.268 140.457C353.735 139.91 354.218 139.121 354.272 138.507C354.327 137.869 354.325 136.99 354.173 136.37C353.845 137.71 353.207 141.297 353.946 142.527C354.054 142.707 354.365 142.926 354.427 143.069C354.519 143.284 354.275 143.508 354.507 143.702C354.699 143.581 355.044 143.296 355.247 143.24C355.482 143.175 355.799 143.319 356.017 143.279C356.359 143.217 356.618 142.231 356.68 141.959C356.772 141.549 356.869 141.045 356.764 140.63C356.663 140.534 356.595 140.471 356.452 140.446Z" fill="#3E4841"/>
<path d="M354.173 136.37C354.264 136.062 354.389 135.738 354.447 135.423C354.545 134.882 354.449 133.712 354.982 133.415C355.571 133.087 356.483 133.142 357.106 133.328C357.312 133.39 357.479 133.472 357.612 133.647C357.882 135.078 357.353 135.294 357.211 136.404C357.108 137.199 357.428 138.25 356.953 138.95C356.392 139.776 356.48 139.202 356.452 140.446C356.325 140.526 356.085 140.523 355.933 140.538C355.617 140.308 355.635 139.94 355.572 139.567L355.409 139.484C355.191 139.61 355.201 140.134 355.024 140.393C354.76 140.552 354.554 140.506 354.268 140.457C353.735 139.91 354.218 139.121 354.271 138.507C354.327 137.869 354.325 136.99 354.173 136.37Z" fill="#444244"/>
<path d="M354.173 136.37C354.325 136.99 354.327 137.869 354.271 138.507C354.218 139.121 353.735 139.91 354.268 140.457C354.554 140.506 354.76 140.552 355.024 140.393C355.201 140.134 355.191 139.61 355.409 139.484L355.572 139.567C355.635 139.94 355.617 140.308 355.933 140.537C356.085 140.522 356.325 140.526 356.452 140.446C356.595 140.471 356.663 140.534 356.764 140.63C356.869 141.045 356.772 141.549 356.68 141.959C356.618 142.231 356.359 143.217 356.016 143.279C355.799 143.319 355.482 143.175 355.247 143.24C355.044 143.296 354.699 143.581 354.507 143.702C354.275 143.507 354.519 143.283 354.427 143.069C354.365 142.926 354.054 142.707 353.946 142.527C353.207 141.297 353.845 137.71 354.173 136.37Z" fill="#3F413E" fill-opacity="0.972549"/>
<path d="M311.278 145.81C311.491 145.297 311.316 144.997 311.156 144.482C311.22 144.441 311.298 144.396 311.376 144.38C311.585 144.338 311.718 144.342 311.887 144.463C311.812 144.637 311.741 144.799 311.718 144.988C312.085 145.144 312.41 144.938 312.767 145.007C312.8 145.013 312.832 145.02 312.864 145.028L313.018 145.369C313.069 145.403 313.159 145.481 313.214 145.498C313.559 145.601 314.527 145.383 314.926 145.342C316.102 145.213 317.288 145.215 318.463 145.348C318.722 145.378 318.683 145.419 318.834 145.602C318.931 145.718 318.996 145.766 319.145 145.784C319.629 145.84 320.15 145.465 320.647 145.442C321.702 145.394 322.797 145.657 323.883 145.626C323.911 145.598 323.939 145.577 323.968 145.553C324.023 145.508 324.076 145.468 324.142 145.442C324.612 145.261 327.988 145.295 328.916 145.205C329.289 145.169 329.808 145.031 330.14 145.178L330.214 145.647L330.4 145.633C330.438 145.502 330.473 145.338 330.546 145.223C330.678 145.013 330.88 144.994 331.11 144.947C331.649 144.836 333.227 144.626 333.69 144.723C333.76 144.738 333.92 144.875 333.989 144.92C334.006 145.525 333.824 146.101 333.843 146.696L324.486 146.955C323.05 146.983 321.606 146.898 320.173 146.958C315.924 147.136 311.692 147.524 307.441 147.62C306.623 147.662 305.769 147.507 304.943 147.5C303.594 147.488 302.243 147.598 300.892 147.593C301.08 147.476 301.298 147.373 301.362 147.145C301.213 146.925 300.669 146.833 300.404 146.658C300.566 146.64 300.793 146.635 300.926 146.534C301.02 146.46 301.01 146.324 301.026 146.209C301.316 145.864 301.831 145.686 302.286 145.623L302.04 145.548L301.984 145.42C302.138 145.377 302.524 145.352 302.635 145.284C303.064 145.019 302.991 144.477 303.688 144.68C303.804 144.948 303.639 145.134 303.835 145.319L304.039 145.085C304.086 145.085 304.132 145.088 304.178 145.092C304.557 145.119 304.912 145.455 305.299 145.517C306.147 145.654 308.099 145.197 308.7 145.889C308.747 146.162 308.776 146.474 308.855 146.739C309.399 146.705 310.37 147 310.819 146.738C311.206 146.512 311.176 146.193 311.278 145.81Z" fill="#01CF5A" fill-opacity="0.984314"/>
<path d="M333.989 144.92C334.523 144.884 334.513 145.25 334.936 145.296C335.173 145.322 335.597 145.166 335.89 145.164C336.65 145.159 337.398 145.285 338.154 145.288C341.183 145.299 344.24 144.845 347.272 145.033C347.562 145.051 347.975 145.137 348.252 145.061C348.592 144.968 349.703 144.076 349.812 144.078C349.84 144.079 349.945 144.151 349.976 144.168C350.13 144.521 350.196 145.407 350.426 145.624C350.659 145.259 350.39 144.704 350.611 144.323C350.686 144.194 350.785 144.153 350.927 144.114C351.148 144.053 351.567 144.06 351.767 144.176C352.563 144.636 351.666 145.604 353.418 145.242C354.468 145.542 355.586 144.925 356.198 145.226L356.257 145.381C356.054 145.803 355.094 146.236 355.062 146.545L355.506 146.779L355.462 146.919C355.282 146.998 355.131 147.108 354.933 147.022C354.618 146.888 354.592 146.697 354.185 146.69C354.09 146.769 353.969 146.96 353.868 147.007C353.472 146.996 353.068 147.095 352.67 147.098C350.98 147.115 349.284 147.117 347.596 147.014C346.648 147.032 345.985 147.002 345.129 146.548C345.066 146.596 344.979 146.686 344.91 146.717C344.625 146.847 342.58 146.694 342.147 146.69C340.451 146.677 338.747 146.632 337.052 146.659C336.074 146.675 335.046 146.852 334.078 146.728C333.999 146.718 333.921 146.707 333.843 146.696C333.824 146.101 334.006 145.525 333.989 144.92Z" fill="#07CF5D"/>
<path d="M295.001 144.249C295.671 143.141 295.595 141.662 296.286 140.614L296.485 140.601C297.344 141.423 297.725 143.025 298.284 144.077C298.862 144.301 299.203 144.397 299.817 144.232C300.038 144.406 300.236 144.597 300.437 144.792L300.383 144.906C299.743 145.076 299.003 144.923 298.405 145.19C298.162 145.381 298.139 145.618 298.102 145.925C298.067 146.205 298.175 146.497 298.351 146.714C298.406 146.783 298.478 146.826 298.562 146.853C298.823 146.782 298.886 146.72 299.083 146.53L299.24 145.837L299.421 145.774C299.779 145.989 300.401 146.409 300.833 146.294C300.902 146.275 300.965 146.245 301.026 146.209C301.01 146.324 301.02 146.46 300.926 146.533C300.793 146.635 300.566 146.64 300.404 146.658L300.164 146.519C299.831 146.645 299.631 146.887 299.28 146.974C298.166 147.249 297.057 147.126 295.921 147.153C293.761 147.204 291.608 147.331 289.45 147.408C288.49 147.442 287.44 147.347 286.496 147.48C285.932 146.938 286.224 144.421 286.05 143.428C286.357 143.599 286.639 143.69 286.746 144.06C286.881 144.526 286.779 145.179 286.974 145.595C287.219 146.118 287.601 146.004 287.843 146.81L287.919 146.773L287.893 146.546L288.452 146.152L288.467 146.172C288.704 146.487 289.073 146.595 289.449 146.644C289.777 146.688 290.345 146.7 290.618 146.489C290.629 146.481 290.639 146.472 290.649 146.463C290.551 146.201 290.449 146.07 290.551 145.799L290.577 145.783C290.596 145.998 290.624 146.088 290.767 146.261C290.958 146.492 291.147 146.548 291.433 146.577C291.638 146.461 291.723 146.434 291.817 146.208C291.928 145.94 291.927 145.604 291.814 145.34L291.804 145.319C292.104 145.167 292.737 145.367 293.129 145.261L293.156 145.185C292.485 145.017 291.731 145.085 291.043 145.092C291.108 144.853 291.199 144.684 291.344 144.483C292.502 144.194 293.81 144.298 295.001 144.249Z" fill="#07CF5D" fill-opacity="0.964706"/>
<path d="M296.229 141.24C296.543 141.382 296.53 141.524 296.689 141.803C297.324 142.912 296.896 143.225 297.064 144.306C297.106 144.583 297.302 144.909 297.434 145.154L297.321 145.394C297.034 145.568 297.001 145.575 296.665 145.546L296.733 145.788C296.384 145.865 296.392 145.962 296.033 145.82C295.673 145.178 296.255 142.321 296.229 141.24Z" fill="#07CF5D"/>
<path d="M360.997 145.915C361.114 145.229 361.221 144.472 361.713 143.945C362.55 143.047 364.814 143.321 366 143.277V146.672C364.954 146.735 363.788 146.543 362.779 146.736L362.693 146.848L362.914 147.078C361.851 147.365 361.112 148.205 360.013 148.366C357.192 148.78 354.321 148.252 351.504 148.172C349.133 148.104 343.035 148.535 341.134 147.785L341.066 147.691C342.052 147.503 343.421 147.669 344.451 147.667C347.678 147.661 350.907 147.607 354.134 147.631C355.8 147.643 357.589 147.832 359.239 147.697C359.665 147.662 360.061 147.503 360.452 147.342C360.617 146.864 360.766 146.366 360.997 145.915Z" fill="#0DD455" fill-opacity="0.0156863"/>
<path d="M271.13 129.095C272.04 128.705 290.293 128.938 292.039 128.938L331.735 128.936L351.627 128.937C354.869 128.937 358.223 128.91 361.458 128.971C364.673 129.032 363.42 134.306 363.622 136.284C363.7 137.05 365.462 137.004 366 137.028V138.803C365.506 138.803 364.919 138.744 364.461 138.949L364.418 139.081C364.851 139.347 365.511 139.274 366 139.264V139.799C365.28 139.788 364.155 139.894 363.492 139.615L363.549 139.397C363.383 139.314 363.296 139.241 363.192 139.087C363.385 138.768 363.759 138.836 363.982 138.509C363.842 138.415 363.703 138.337 363.623 138.182C363.827 137.938 364.212 137.878 364.493 137.706C364.505 137.45 363.426 137.124 363.249 136.688C362.916 135.869 363.692 132.619 363.149 131.899C363.072 130.918 362.507 130.327 362.001 129.527C361.92 129.417 361.585 129.364 361.433 129.328C360.595 129.106 356.295 129.129 355.166 129.125L342.721 129.121L297.209 129.134C295.757 129.029 292.734 129.123 291.187 129.123L278.287 129.133C276.078 129.136 273.291 129.22 271.13 129.095Z" fill="#3D634B" fill-opacity="0.207843"/>
<path d="M363.149 131.9C363.692 132.619 362.916 135.87 363.249 136.689C363.426 137.125 364.505 137.45 364.493 137.706C364.212 137.879 363.827 137.938 363.623 138.183C363.703 138.337 363.842 138.416 363.982 138.51C363.759 138.836 363.385 138.768 363.192 139.088C363.296 139.241 363.384 139.315 363.549 139.398L363.492 139.615C364.155 139.894 365.281 139.789 366 139.799V140.221C365.126 140.225 364.291 140.218 363.429 140.392L363.473 140.482C364.322 140.655 365.139 140.639 366 140.641V141.136C365.032 141.139 363.127 141.356 362.354 140.801C361.764 140.377 362.71 138.203 362.785 137.538C362.827 137.174 362.714 136.761 362.654 136.402L362.915 135.193C363.131 134.082 363.145 133.026 363.149 131.9Z" fill="#334939" fill-opacity="0.345098"/>
<path d="M286.496 147.48C287.44 147.347 288.49 147.442 289.45 147.408C291.609 147.331 293.761 147.204 295.921 147.153C297.057 147.126 298.166 147.249 299.281 146.974C299.631 146.887 299.831 146.645 300.164 146.519L300.404 146.658C300.67 146.833 301.213 146.925 301.362 147.145C301.298 147.372 301.08 147.476 300.892 147.592C298.666 147.748 296.416 147.648 294.188 147.664C292.217 147.677 288.296 147.952 286.496 147.48Z" fill="#01C84C" fill-opacity="0.956863"/>
<path d="M281.585 136.424C281.617 136.413 281.649 136.404 281.682 136.396C282.038 136.311 282.482 136.517 282.861 136.46C283.041 136.433 282.968 136.172 283.271 136.168C283.434 136.367 283.328 136.542 283.42 136.687C283.658 137.059 284.464 136.844 284.406 137.551C284.403 137.587 284.402 137.625 284.374 137.65C284.096 137.891 284.036 138.372 284.016 138.718C283.997 139.043 284.001 139.376 284.014 139.701C282.809 138.784 281.768 138.22 280.291 137.806C280.629 137.758 280.931 137.803 281.267 137.796C281.557 137.791 281.635 137.742 281.829 137.539C281.867 137.393 281.907 137.226 281.886 137.074C281.847 136.77 281.827 136.613 281.585 136.424Z" fill="#02D05B" fill-opacity="0.984314"/>
<path d="M362.915 135.193C362.699 135.228 362.444 135.297 362.233 135.222C361.986 134.383 362.169 133.252 362.092 132.363C362.018 131.491 361.642 130.663 361.776 129.787C361.798 129.64 361.887 129.612 362.001 129.527C362.507 130.328 363.072 130.918 363.149 131.9C363.145 133.026 363.131 134.082 362.915 135.193Z" fill="#15C653" fill-opacity="0.984314"/>
<path d="M5.33634 134.725C5.59654 134.767 5.9277 134.779 6.12049 134.976C6.16666 134.953 6.25938 134.924 6.27515 134.876C6.38499 134.541 6.36696 134.23 6.35087 133.882C6.57621 133.826 6.64905 133.828 6.87365 133.887C7.09264 134.434 6.51062 134.891 7.06783 135.43L7.43775 135.575C7.81807 135.514 8.11593 135.339 8.49274 135.414C8.47091 135.631 8.42041 135.725 8.2444 135.87C8.15365 135.944 8.05782 136.014 7.96258 136.082C7.77512 136.203 7.56287 136.168 7.35618 136.12C6.88296 136.01 6.56515 135.977 6.11996 136.25C5.95609 136.351 5.80393 136.485 5.65796 136.61C5.62905 136.831 5.63524 137.049 5.64097 137.272C5.47915 137.187 5.2978 137.093 5.19055 136.941C4.86431 136.476 5.23661 135.264 5.33634 134.725Z" fill="#15C653" fill-opacity="0.988235"/>
<path d="M308.855 146.739C309.103 146.635 309.162 146.387 309.299 146.178C309.576 145.753 309.863 145.362 310.371 145.252C310.732 145.454 310.597 145.538 310.807 145.838L311.278 145.811C311.176 146.194 311.206 146.512 310.819 146.738C310.37 147 309.399 146.705 308.855 146.739Z" fill="#01C84C" fill-opacity="0.968627"/>
<path d="M358.258 142.996C358.696 143.04 359.252 143.164 359.682 143.092L359.889 143.193C359.745 143.281 359.637 143.394 359.521 143.515C359.481 143.939 360.022 144.147 360.122 144.652L360.042 144.446C359.75 144.427 359.854 144.858 359.581 145.047C359.228 144.939 359.092 144.572 358.899 144.264L358.722 144.231L358.439 144.463L358.342 144.448C358.29 143.955 358.419 143.473 358.258 142.996Z" fill="#07CF5D" fill-opacity="0.952941"/>
<path d="M291.043 145.092C291.731 145.086 292.485 145.017 293.156 145.185L293.129 145.262C292.737 145.367 292.104 145.167 291.804 145.319L291.814 145.34C291.927 145.605 291.928 145.94 291.817 146.208C291.723 146.435 291.638 146.461 291.433 146.578C291.147 146.548 290.958 146.493 290.767 146.261C290.624 146.088 290.596 145.998 290.577 145.784C290.714 145.705 290.839 145.628 290.957 145.52C291.071 145.416 291.036 145.243 291.043 145.092Z" fill="#0DD455" fill-opacity="0.964706"/>
<path d="M299.24 145.838L299.083 146.531C298.886 146.721 298.824 146.782 298.562 146.854C298.478 146.826 298.406 146.783 298.351 146.714C298.175 146.497 298.067 146.205 298.102 145.925C298.139 145.619 298.162 145.381 298.405 145.19C298.668 145.456 298.898 145.677 299.24 145.838Z" fill="#0DD455" fill-opacity="0.964706"/>
<path d="M366 140.641C365.139 140.639 364.322 140.655 363.473 140.483L363.429 140.392C364.291 140.218 365.126 140.226 366 140.222V140.641Z" fill="#334939" fill-opacity="0.278431"/>
<path d="M366 138.804V139.265C365.511 139.274 364.851 139.348 364.418 139.082L364.461 138.95C364.919 138.744 365.506 138.804 366 138.804Z" fill="#3D634B" fill-opacity="0.14902"/>
</g>
<defs>
<clipPath id="clip0_75_785">
<rect width="365.586" height="27.2064" fill="white" transform="translate(0.413635 124.742)"/>
</clipPath>
</defs>
</svg>
