<svg width="148" height="170" viewBox="0 0 148 170" fill="none" xmlns="http://www.w3.org/2000/svg">
<path d="M12.9582 12.9385C14.3665 12.9547 54.1305 38.1057 58.5694 40.4847C59.7837 41.1355 65.7906 45.1709 66.8802 45.695C67.7494 46.1131 72.8307 43.8317 74.6014 43.5971C77.8548 43.1661 80.6154 43.0275 83.8495 43.5182C95.8759 45.3428 105.142 55.7447 109.738 66.4428C110.157 67.4201 110.667 68.4243 111.073 69.3957C111.621 70.7075 111.69 72.5202 112.817 73.5638C113.953 74.6157 115.793 75.4747 117.007 76.2806C120.073 78.316 129.209 83.2103 131.011 85.6195C129.763 85.2912 128.373 84.64 127.098 84.296C122.732 83.1176 118.39 81.5716 114.053 80.3923C114.332 81.7136 114.901 87.7999 114.908 89.1092C115.926 89.1819 124.111 90.3137 124.864 90.6434L124.908 90.8732C124.333 91.3162 116.276 92.0942 114.957 92.19C114.779 95.2015 115.094 97.4348 114.343 100.612C116.314 99.8522 118.738 98.3452 120.341 97.9251L120.489 98.012C120.421 99.0443 115.308 102.509 114.351 103.86C113.626 104.885 112.195 111.877 111.532 113.891C110.672 116.506 109.337 119.442 107.974 121.829C106.538 124.343 105.079 126.785 103.288 129.065C99.3334 134.098 92.9986 139.215 86.7501 140.923C86.4941 141.015 86.8209 140.905 86.5513 140.973C80.2957 142.553 75.6255 142.32 69.4258 140.419C66.5502 142.176 63.1431 145.888 60.4104 147.803C58.0269 149.476 49.6726 157.234 47.8411 157.763C46.6966 157.026 45.8516 151.221 45.4439 149.604L40.84 131.198C40.4677 129.669 38.3356 120.785 38.7562 120.055C39.0928 119.945 39.4409 119.878 39.7274 120.143C42.996 123.173 45.3881 127.768 48.9436 130.358C49.3715 130.67 53.6789 128.874 54.3676 128.601C48.7941 122.334 44.7557 110.344 44.0829 102.07C41.1297 102.472 37.2976 103.223 34.3364 103.245C34.0894 101.429 32.678 97.8741 32.501 96.3326C32.2213 93.8974 28.1081 80.3886 29.0518 79.0547C30.1301 78.6565 42.069 80.4317 44.5192 80.5603C46.0087 73.4392 47.8612 67.56 51.5936 61.3261C51.9183 60.7835 50.2555 60.4966 49.7751 60.342C41.2183 57.5859 32.5688 55.0676 24.0059 52.3443C23.3991 52.1512 21.8795 51.3254 21.6905 50.8156C20.7552 48.2944 20.2316 44.8024 19.6256 42.23L16.2232 28.1171C15.6458 25.7488 12.6462 14.8786 12.9582 12.9385ZM84.5152 131.005C88.616 130.927 91.272 130.363 94.7493 127.975C111.233 116.653 115.175 92.9427 108.428 75.007C104.29 64.0064 95.6743 54.0548 83.0099 54.3884L82.5298 54.4032C49.8238 58.3581 46.6447 119.224 76.7952 130.256C80.0787 131.458 81.2481 130.95 84.5152 131.005Z" fill="#4BA33E"/>
<path d="M80.5302 58.4496C80.7791 58.4293 81.8307 58.6456 82.1423 58.7031C83.1735 60.08 83.6664 60.684 83.7463 62.5018C83.9728 67.6556 84.128 72.8547 83.7559 78.0054C83.6525 79.4368 83.0792 81.1716 81.885 82.1007C79.5231 83.7449 77.9295 80.9985 76.7643 79.3998C75.9451 78.1431 75.1369 76.9035 74.2802 75.6702C72.7089 73.4078 69.9105 70.6977 69.6399 67.8919C69.4951 66.3916 69.956 64.8955 70.9199 63.7367C72.7946 61.4697 77.5342 58.7279 80.5302 58.4496Z" fill="#FFB100"/>
<path d="M88.7508 103.485C89.3845 103.51 90.5057 103.691 90.9271 104.211C93.5817 107.515 95.8617 111.292 98.3531 114.72C102.339 120.204 98.8315 122.658 94.5313 125.603C93.5392 126.184 91.4857 127.177 90.4062 127.515C88.8603 127.998 88.1449 127.652 86.8719 126.94C84.7577 122.753 86.2306 117.164 85.665 112.627C85.4232 110.689 85.8788 108.225 86.1965 106.295C86.4044 105.032 87.6332 103.994 88.7508 103.485Z" fill="#FFB100"/>
<path d="M79.8661 103.512C80.3227 103.504 80.8368 103.469 81.2676 103.645C82.2498 104.047 82.9284 105.023 83.3058 105.975C84.0717 107.906 84.0404 124.039 83.2899 125.71C82.8832 126.611 82.1309 127.311 81.2027 127.652C79.7947 128.162 76.8723 126.55 75.4439 125.897C73.8722 125.089 70.2497 122.245 69.7532 120.427C68.5945 116.183 74.145 111.152 76.0408 107.678C76.7659 106.349 78.5789 103.971 79.8661 103.512Z" fill="#FFB100"/>
<path d="M102.602 71.5752C106.855 71.6238 108.742 83.3295 109.057 86.819C109.61 92.9444 102.656 91.5095 98.3897 91.4978C97.0817 91.5022 94.7967 91.639 93.7115 91.023C91.6738 89.8663 91.6075 85.8018 92.7786 84.0652C95.492 80.0411 97.9519 75.8364 101.08 72.125C101.277 71.8917 102.268 71.6592 102.602 71.5752Z" fill="#FFB100"/>
<path d="M66.4478 71.5488C67.0858 71.572 67.9162 71.6422 68.4074 72.1543C70.3825 74.2891 71.9195 76.8601 73.5855 79.2494C75.282 81.6829 77.477 84.1625 77.5472 87.2406C77.6389 91.2606 74.9059 91.4622 71.7599 91.4956C69.2121 91.5051 64.4903 91.8212 62.1234 90.9899C59.6411 90.1181 60.7362 84.5527 61.1633 82.6056C61.8536 79.4583 62.9409 76.037 64.2508 73.0626C64.7026 72.0118 65.4618 71.8824 66.4478 71.5488Z" fill="#FFB100"/>
<path d="M85.8449 64.1764C85.9494 62.1816 86.2153 57.9324 89.3203 58.4988C93.3517 59.2341 100.372 62.9977 100.055 67.8926C99.8683 70.0351 96.4841 74.0853 95.1799 75.9248C93.812 77.8541 92.5031 80.2426 90.7481 81.8365C89.4496 83.0156 88.1308 82.3573 86.8394 81.5956C86.1131 80.2366 85.644 78.0176 85.7368 76.5249C85.9589 75.5748 85.8371 69.7547 85.8236 68.4213L85.8449 64.1764Z" fill="#FFB100"/>
<path d="M94.9164 94.887C97.0539 94.7786 106.071 94.4539 107.517 95.3431C108.338 95.8481 108.789 96.728 108.984 97.6479C109.795 101.478 106.887 110.41 104.694 113.824C103.979 114.606 102.291 115.184 101.58 114.354C98.3536 110.587 95.3746 106.045 92.6241 101.915C91.2616 99.8695 91.7056 95.4123 94.9164 94.887Z" fill="#FFB100"/>
<path d="M64.251 94.8746C66.4656 94.7501 73.4015 94.7461 75.3974 95.0182C79.4906 97.9118 76.9812 102.332 74.6738 105.319C73.3012 107.095 71.8291 109.349 70.6203 111.254C69.9084 112.014 68.8818 113.465 68.1274 114.374C67.6682 114.548 67.2171 114.711 66.7195 114.71C66.0046 114.709 65.4856 114.362 65.0071 113.858C62.751 111.485 60.508 102.429 60.5638 99.1755C60.5909 97.587 60.9523 96.1301 62.1165 94.9987C62.8024 94.9359 63.5579 94.9114 64.251 94.8746Z" fill="#FFB100"/>
<path d="M84.107 85.6061C85.1677 85.5353 86.0363 85.512 86.9998 86.0633C91.782 88.7987 91.5233 99.0792 85.8194 100.603C77.9312 102.236 76.9018 86.8226 84.107 85.6061Z" fill="#FFB100"/>
<path d="M85.4478 68.0469L85.6287 69.1022L85.8235 68.4202C85.8369 69.7536 85.9588 75.5738 85.7366 76.5238C84.9849 75.387 85.254 72.7687 85.2897 71.3078C85.4233 70.6087 85.4276 68.838 85.4478 68.0469Z" fill="#000E00" fill-opacity="0.494118"/>
<path d="M85.2897 71.3083C85.2673 69.594 85.1413 65.8654 85.3375 64.3067L85.5201 64.2731L85.6382 64.3512L85.8447 64.1758L85.8235 68.4207L85.6286 69.1027L85.4478 68.0473C85.4276 68.8385 85.4233 70.6092 85.2897 71.3083Z" fill="#000E00" fill-opacity="0.360784"/>
</svg>
