<svg xmlns="http://www.w3.org/2000/svg" viewBox="0 0 1920 1080" preserveAspectRatio="xMidYMid slice">
  <defs>
    <!-- Radial glow verde direita (onde fica a moto) -->
    <radialGradient id="gr" cx="72%" cy="55%" r="50%">
      <stop offset="0%" stop-color="#00a651" stop-opacity="0.18"/>
      <stop offset="100%" stop-color="#00a651" stop-opacity="0"/>
    </radialGradient>
    <!-- Radial glow azul-verde esquerda -->
    <radialGradient id="gl" cx="18%" cy="30%" r="38%">
      <stop offset="0%" stop-color="#003d1f" stop-opacity="0.25"/>
      <stop offset="100%" stop-color="#003d1f" stop-opacity="0"/>
    </radialGradient>
    <!-- Dot grid -->
    <pattern id="dots" x="0" y="0" width="48" height="48" patternUnits="userSpaceOnUse">
      <circle cx="24" cy="24" r="1.2" fill="white" opacity="0.06"/>
    </pattern>
    <!-- Line grid diagonal sutil -->
    <pattern id="lines" x="0" y="0" width="120" height="120" patternUnits="userSpaceOnUse">
      <path d="M0 120 L120 0" stroke="white" stroke-width="0.4" stroke-opacity="0.04"/>
    </pattern>
  </defs>

  <!-- Base escuro -->
  <rect width="1920" height="1080" fill="#050c1a"/>

  <!-- Glows -->
  <rect width="1920" height="1080" fill="url(#gr)"/>
  <rect width="1920" height="1080" fill="url(#gl)"/>

  <!-- Dot grid -->
  <rect width="1920" height="1080" fill="url(#dots)"/>
  <!-- Line grid -->
  <rect width="1920" height="1080" fill="url(#lines)"/>

  <!-- Círculos concêntricos elétricos (centro da moto lado direito) -->
  <g transform="translate(1380, 580)" opacity="0.12">
    <circle r="160" fill="none" stroke="#00a651" stroke-width="1"/>
    <circle r="280" fill="none" stroke="#00a651" stroke-width="0.8"/>
    <circle r="420" fill="none" stroke="#00a651" stroke-width="0.6"/>
    <circle r="580" fill="none" stroke="#00a651" stroke-width="0.4"/>
  </g>

  <!-- Linha horizontal sutil no meio -->
  <line x1="0" y1="540" x2="1920" y2="540" stroke="white" stroke-opacity="0.03" stroke-width="1"/>

  <!-- Marca d'água Solcenter icon (flor/sol) — muito sutil, lado direito -->
  <g transform="translate(1260, 320) scale(8)" opacity="0.03" fill="#00a651">
    <path d="M6.5163 6.50607C7.22445 6.51424 27.2199 19.1615 29.4519 20.3577C30.0626 20.685 33.0831 22.7142 33.6311 22.9778C34.0682 23.188 36.6233 22.0408 37.5137 21.9228C39.1496 21.7061 40.5379 21.6364 42.1641 21.8832C48.2116 22.8006 52.8711 28.0313 55.1821 33.4108C55.3931 33.9023 55.6495 34.4072 55.8536 34.8957C56.1291 35.5553 56.1636 36.4668 56.7304 36.9917C57.3017 37.5206 58.2271 37.9525 58.8376 38.3578C60.3793 39.3813 64.973 41.8424 65.8792 43.0539C65.252 42.8888 64.5527 42.5613 63.9119 42.3883C61.7162 41.7958 59.5327 41.0184 57.3522 40.4254C57.4925 41.0898 57.7783 44.1503 57.782 44.8087C58.2939 44.8452 62.4095 45.4144 62.7885 45.5801L62.8104 45.6957C62.5214 45.9185 58.4699 46.3097 57.8063 46.3579C57.7171 47.8722 57.8755 48.9952 57.4979 50.5927C58.4891 50.2108 59.7077 49.453 60.5137 49.2418L60.5881 49.2855C60.5541 49.8045 57.9831 51.5469 57.502 52.2264C57.1371 52.7417 56.4175 56.2574 56.0844 57.2704C55.6519 58.5853 54.9808 60.0617 54.2954 61.2617C53.5732 62.5262 52.8396 63.754 51.9386 64.9007C49.9502 67.4314 46.7648 70.0043 43.6227 70.8632C43.494 70.9094 43.6583 70.8541 43.5227 70.8883C40.3771 71.683 38.0287 71.5657 34.9111 70.6101C33.4651 71.4936 31.7518 73.3602 30.3777 74.3231C29.1792 75.164 24.9782 79.0654 24.0572 79.3314C23.4817 78.9607 23.0568 76.042 22.8518 75.2287L20.5367 65.9731C20.3495 65.2044 19.2773 60.737 19.4888 60.3701C19.6581 60.3143 19.8332 60.2808 19.9772 60.4143C21.6208 61.9377 22.8237 64.2483 24.6116 65.5508C24.8268 65.7075 26.9927 64.8043 27.3391 64.6674C24.5365 61.5159 22.5057 55.4865 22.1674 51.326C20.6823 51.5284 18.7554 51.9059 17.2663 51.9167C17.1421 51.0037 16.4324 49.2161 16.3434 48.441C16.2028 47.2164 14.1344 40.4235 14.609 39.7528C15.1512 39.5525 21.1547 40.4452 22.3868 40.5098C23.1358 36.929 24.0673 33.9726 25.9442 30.8379C26.1075 30.565 25.2713 30.4208 25.0297 30.343C20.7269 28.9571 16.3775 27.6908 12.0716 26.3214C11.7665 26.2243 11.0024 25.809 10.9073 25.5527C10.437 24.2849 10.1737 22.5289 9.86897 21.2354L8.15807 14.1387C7.86772 12.9478 6.35937 7.48169 6.5163 6.50607Z"/>
  </g>

  <!-- Linha vertical sutil separando texto e moto (desktop ~40%) -->
  <line x1="768" y1="80" x2="768" y2="1000" stroke="white" stroke-opacity="0.04" stroke-width="1" stroke-dasharray="4 12"/>
</svg>
